<?xml version="1.0" encoding="UTF-8" standalone="no"?>
<!-- Generator: Adobe Illustrator 16.0.0, SVG Export Plug-In . SVG Version: 6.00 Build 0)  -->

<svg
   xmlns:dc="http://purl.org/dc/elements/1.1/"
   xmlns:cc="http://creativecommons.org/ns#"
   xmlns:rdf="http://www.w3.org/1999/02/22-rdf-syntax-ns#"
   xmlns:svg="http://www.w3.org/2000/svg"
   xmlns="http://www.w3.org/2000/svg"
   xmlns:sodipodi="http://sodipodi.sourceforge.net/DTD/sodipodi-0.dtd"
   xmlns:inkscape="http://www.inkscape.org/namespaces/inkscape"
   version="1.1"
   id="Capa_1"
   x="0px"
   y="0px"
   width="48"
   height="48"
   viewBox="0 0 47.999998 47.999998"
   xml:space="preserve"
   inkscape:version="0.91 r"
   sodipodi:docname="female.svg"><metadata
     id="metadata41"><rdf:RDF><cc:Work
         rdf:about=""><dc:format>image/svg+xml</dc:format><dc:type
           rdf:resource="http://purl.org/dc/dcmitype/StillImage" /><dc:title /></cc:Work></rdf:RDF></metadata><defs
     id="defs39" /><sodipodi:namedview
     pagecolor="#ffffff"
     bordercolor="#666666"
     borderopacity="1"
     objecttolerance="10"
     gridtolerance="10"
     guidetolerance="10"
     inkscape:pageopacity="0"
     inkscape:pageshadow="2"
     inkscape:window-width="1920"
     inkscape:window-height="1056"
     id="namedview37"
     showgrid="false"
     inkscape:zoom="11.868839"
     inkscape:cx="-7.8112858"
     inkscape:cy="26.701399"
     inkscape:window-x="0"
     inkscape:window-y="24"
     inkscape:window-maximized="1"
     inkscape:current-layer="Capa_1" /><path
     style="fill:#010002;opacity:0.85"
     d="m 24.091116,2.3674174 c -1.035947,0 -1.89425,0.3528713 -2.60874,1.0609709 -0.692123,0.6850927 -1.033511,1.522476 -1.033511,2.4951543 0,1.0225264 0.340689,1.8687872 1.036007,2.5513236 0.715129,0.6665595 1.573492,0.9860785 2.606244,0.9860785 0.972679,0 1.807216,-0.319519 2.453964,-0.9860785 0.66656,-0.6818973 1.014788,-1.5287972 1.014788,-2.5513236 0,-0.9726783 -0.348228,-1.8068662 -1.014788,-2.4951543 C 25.901527,2.7202887 25.063795,2.3674174 24.091116,2.3674174 Z m -2.929528,8.1133086 c -0.849975,-1e-6 -1.664851,0.313438 -2.447723,0.999809 -0.786067,0.662086 -1.293955,1.427593 -1.525302,2.267981 -0.392394,1.097299 -0.712034,2.235888 -1.060971,3.418823 -0.341268,1.176546 -0.667598,2.273574 -0.968604,3.286515 -0.302285,0.996963 -0.552324,1.854267 -0.738935,2.543834 -0.162327,0.695317 -0.300317,1.104977 -0.348248,1.224485 -0.06774,0.13932 -0.09237,0.278139 -0.09237,0.446855 0,0.617352 0.32631,1.050168 0.996064,1.298131 l 0.365724,0.08863 c 0.718324,0 1.176494,-0.336396 1.386751,-1.028518 0.02301,-0.226234 0.254673,-0.88851 0.599137,-1.93596 0.302923,-1.060872 0.65168,-2.164002 0.966107,-3.325209 0.349577,-1.166958 0.795793,-2.637658 1.32559,-4.466064 l 0.831302,0 -4.830539,16.311495 4.642061,0 0,12.389645 c 0,0.486978 0.159779,0.890627 0.505521,1.182047 0.322735,0.303562 0.738725,0.449352 1.226982,0.449352 0.483144,0 0.877296,-0.14515 1.178302,-0.449352 0.301645,-0.29142 0.461834,-0.695069 0.461834,-1.182047 l 0,-12.389645 0.837544,0 0,12.389645 c 0,0.486978 0.135864,0.890627 0.43687,1.182047 0.317622,0.303562 0.691453,0.449352 1.199522,0.449352 0.481226,0 0.873591,-0.14515 1.199521,-0.449352 0.369387,-0.29142 0.508018,-0.695069 0.508018,-1.182047 l 0,-12.389645 4.568417,0 -4.82305,-16.31399 0.833798,0 c 0.529157,1.8316 0.962444,3.305435 1.331831,4.468559 0.368748,1.161846 0.698294,2.264337 1.021029,3.325209 0.272886,1.046812 0.479359,1.709726 0.530485,1.93596 0.184055,0.691483 0.648036,1.028518 1.384254,1.028518 l 0.339512,-0.09361 c 0.668477,-0.191724 1.018532,-0.627825 1.018532,-1.37427 l -0.09112,-0.365722 c -0.06455,-0.119509 -0.184164,-0.529168 -0.368219,-1.224486 -0.181498,-0.689567 -0.439327,-1.546232 -0.733943,-2.543834 -0.277999,-1.012941 -0.62325,-2.109969 -0.952377,-3.286514 -0.321456,-1.182936 -0.646598,-2.321525 -0.964859,-3.418824 -0.297172,-0.841028 -0.830154,-1.6027 -1.571485,-2.26798 -0.762422,-0.686371 -1.616421,-0.99981 -2.495155,-0.99981 l -5.681812,0 z"
     id="path4178"
     inkscape:connector-curvature="0" /><g
     id="g7"
     transform="translate(0,-31.536003)" /><g
     id="g9"
     transform="translate(0,-31.536003)" /><g
     id="g11"
     transform="translate(0,-31.536003)" /><g
     id="g13"
     transform="translate(0,-31.536003)" /><g
     id="g15"
     transform="translate(0,-31.536003)" /><g
     id="g17"
     transform="translate(0,-31.536003)" /><g
     id="g19"
     transform="translate(0,-31.536003)" /><g
     id="g21"
     transform="translate(0,-31.536003)" /><g
     id="g23"
     transform="translate(0,-31.536003)" /><g
     id="g25"
     transform="translate(0,-31.536003)" /><g
     id="g27"
     transform="translate(0,-31.536003)" /><g
     id="g29"
     transform="translate(0,-31.536003)" /><g
     id="g31"
     transform="translate(0,-31.536003)" /><g
     id="g33"
     transform="translate(0,-31.536003)" /><g
     id="g35"
     transform="translate(0,-31.536003)" /></svg>