<?xml version="1.0" encoding="UTF-8" standalone="no"?>
<!-- Generator: Adobe Illustrator 16.0.0, SVG Export Plug-In . SVG Version: 6.00 Build 0)  -->

<svg
   xmlns:dc="http://purl.org/dc/elements/1.1/"
   xmlns:cc="http://creativecommons.org/ns#"
   xmlns:rdf="http://www.w3.org/1999/02/22-rdf-syntax-ns#"
   xmlns:svg="http://www.w3.org/2000/svg"
   xmlns="http://www.w3.org/2000/svg"
   xmlns:sodipodi="http://sodipodi.sourceforge.net/DTD/sodipodi-0.dtd"
   xmlns:inkscape="http://www.inkscape.org/namespaces/inkscape"
   version="1.1"
   id="Capa_1"
   x="0px"
   y="0px"
   width="48"
   height="48"
   viewBox="0 0 47.999998 47.999998"
   xml:space="preserve"
   inkscape:version="0.91 r"
   sodipodi:docname="male.svg"><metadata
     id="metadata41"><rdf:RDF><cc:Work
         rdf:about=""><dc:format>image/svg+xml</dc:format><dc:type
           rdf:resource="http://purl.org/dc/dcmitype/StillImage" /><dc:title /></cc:Work></rdf:RDF></metadata><defs
     id="defs39" /><sodipodi:namedview
     pagecolor="#ffffff"
     bordercolor="#666666"
     borderopacity="1"
     objecttolerance="10"
     gridtolerance="10"
     guidetolerance="10"
     inkscape:pageopacity="0"
     inkscape:pageshadow="2"
     inkscape:window-width="1920"
     inkscape:window-height="1056"
     id="namedview37"
     showgrid="false"
     inkscape:zoom="19.1875"
     inkscape:cx="24"
     inkscape:cy="24"
     inkscape:window-x="0"
     inkscape:window-y="24"
     inkscape:window-maximized="1"
     inkscape:current-layer="Capa_1" /><path
     style="fill:#010002;opacity:0.85"
     d="m 24.024961,2.3674219 c -1.019331,0 -1.876536,0.3528713 -2.521367,1.0609709 -0.688288,0.6882881 -1.012291,1.522476 -1.012291,2.4951543 0,1.0225264 0.324003,1.8687872 1.012291,2.5513236 0.648666,0.6665595 1.505871,0.9860785 2.521367,0.9860785 0.970122,0 1.826198,-0.319519 2.515126,-0.9860785 0.688288,-0.6850927 1.038504,-1.5313535 1.038504,-2.5513236 0,-0.9726783 -0.353961,-1.8068662 -1.042249,-2.4951543 C 25.844859,2.7202932 24.991888,2.3674219 24.024961,2.3674219 Z M 20.054433,10.37588 c -1.244287,0 -2.310551,0.459738 -3.210373,1.348058 -0.903019,0.928582 -1.366781,2.008876 -1.366781,3.211622 l 0,11.118977 c 0,0.416679 0.141626,0.793576 0.463083,1.098417 0.297811,0.301006 0.668556,0.438118 1.088431,0.438118 0.483144,0 0.854278,-0.137112 1.152089,-0.438118 0.258189,-0.304841 0.394432,-0.681099 0.394432,-1.098417 l 0,-9.941923 0.803842,0 0,27.526581 c 0,0.529797 0.231207,1.020929 0.671533,1.397986 0.413484,0.416679 0.896906,0.595391 1.452905,0.595391 0.602013,0 1.084198,-0.178073 1.47787,-0.595391 0.41668,-0.377057 0.606627,-0.86755 0.606627,-1.397986 l 0,-15.957004 0.899953,0 0,15.957004 c 0,0.529797 0.20802,1.020929 0.599136,1.397986 0.393673,0.416679 0.902839,0.595391 1.525302,0.595391 0.529158,0 0.993788,-0.178073 1.410467,-0.595391 0.390478,-0.377057 0.56918,-0.86755 0.56918,-1.397986 l 0,-27.526581 0.84004,0 0,9.941923 c 0,0.416679 0.132659,0.793576 0.410657,1.098417 0.331044,0.301006 0.7148,0.438118 1.132119,0.438118 0.489535,0 0.859112,-0.137112 1.137112,-0.438118 0.251158,-0.304841 0.410658,-0.681099 0.410658,-1.098417 l 0,-11.118977 c 0,-1.199551 -0.43755,-2.283131 -1.340568,-3.207878 -0.880652,-0.892154 -1.935571,-1.348057 -3.230345,-1.348057 l -7.897369,0 0,-0.0037 z"
     id="path4174"
     inkscape:connector-curvature="0" /><g
     id="g7"
     transform="translate(0,-31.536003)" /><g
     id="g9"
     transform="translate(0,-31.536003)" /><g
     id="g11"
     transform="translate(0,-31.536003)" /><g
     id="g13"
     transform="translate(0,-31.536003)" /><g
     id="g15"
     transform="translate(0,-31.536003)" /><g
     id="g17"
     transform="translate(0,-31.536003)" /><g
     id="g19"
     transform="translate(0,-31.536003)" /><g
     id="g21"
     transform="translate(0,-31.536003)" /><g
     id="g23"
     transform="translate(0,-31.536003)" /><g
     id="g25"
     transform="translate(0,-31.536003)" /><g
     id="g27"
     transform="translate(0,-31.536003)" /><g
     id="g29"
     transform="translate(0,-31.536003)" /><g
     id="g31"
     transform="translate(0,-31.536003)" /><g
     id="g33"
     transform="translate(0,-31.536003)" /><g
     id="g35"
     transform="translate(0,-31.536003)" /></svg>