<?xml version="1.0" encoding="UTF-8" standalone="no"?>
<!-- Created with Inkscape (http://www.inkscape.org/) -->

<svg
   xmlns:dc="http://purl.org/dc/elements/1.1/"
   xmlns:cc="http://creativecommons.org/ns#"
   xmlns:rdf="http://www.w3.org/1999/02/22-rdf-syntax-ns#"
   xmlns:svg="http://www.w3.org/2000/svg"
   xmlns="http://www.w3.org/2000/svg"
   xmlns:sodipodi="http://sodipodi.sourceforge.net/DTD/sodipodi-0.dtd"
   xmlns:inkscape="http://www.inkscape.org/namespaces/inkscape"
   width="200"
   height="170"
   viewBox="0 0 200 170"
   id="svg2"
   version="1.1"
   inkscape:version="0.91 r"
   sodipodi:docname="uos_logo.svg">
  <defs
     id="defs4" />
  <sodipodi:namedview
     id="base"
     pagecolor="#ffffff"
     bordercolor="#666666"
     borderopacity="1.0"
     inkscape:pageopacity="0.0"
     inkscape:pageshadow="2"
     inkscape:zoom="2.8284271"
     inkscape:cx="39.077431"
     inkscape:cy="97.83047"
     inkscape:document-units="px"
     inkscape:current-layer="layer1"
     showgrid="false"
     fit-margin-top="0"
     fit-margin-left="0"
     fit-margin-right="0"
     fit-margin-bottom="0"
     units="px"
     inkscape:snap-page="true"
     inkscape:window-width="1920"
     inkscape:window-height="1056"
     inkscape:window-x="0"
     inkscape:window-y="24"
     inkscape:window-maximized="1" />
  <metadata
     id="metadata7">
    <rdf:RDF>
      <cc:Work
         rdf:about="">
        <dc:format>image/svg+xml</dc:format>
        <dc:type
           rdf:resource="http://purl.org/dc/dcmitype/StillImage" />
        <dc:title></dc:title>
      </cc:Work>
    </rdf:RDF>
  </metadata>
  <g
     inkscape:label="Layer 1"
     inkscape:groupmode="layer"
     id="layer1"
     transform="translate(-110.70851,-485.53528)">
    <path
       style="opacity:1;fill:#ffffff;fill-opacity:1;stroke:none;stroke-width:0.1;stroke-linecap:round;stroke-miterlimit:4;stroke-dasharray:none;stroke-opacity:1"
       d="m 209.88281,503.28077 c -0.0394,-0.0211 -0.0937,0.0363 -0.1639,0.17129 -0.031,0.0596 -0.0659,0.11599 -0.0777,0.12566 -0.0117,0.0101 -0.0276,0.0408 -0.0358,0.0689 -0.0202,0.0709 -0.0565,0.55127 -0.0566,0.75288 -1.1e-4,0.1878 -0.0117,0.22182 -0.0924,0.2834 -0.0282,0.0215 -0.0626,0.0653 -0.0764,0.0973 -0.0137,0.0319 -0.0481,0.0896 -0.0777,0.12814 -0.0708,0.0926 -0.0912,0.16675 -0.0912,0.33147 0,0.12279 0.003,0.14178 0.0346,0.18483 0.019,0.0263 0.0458,0.0631 0.0591,0.0826 0.0453,0.066 0.0963,0.11582 0.14663,0.14169 0.0847,0.0435 0.0885,0.0552 0.0714,0.1873 -0.008,0.0642 -0.0282,0.17704 -0.0443,0.25014 -0.0161,0.0732 -0.0414,0.18905 -0.0566,0.25875 -0.0274,0.12611 -0.0468,0.30179 -0.0628,0.55695 -0.0119,0.1884 -0.0444,0.37755 -0.0764,0.45098 -0.0149,0.0344 -0.0377,0.1329 -0.0505,0.21811 -0.0128,0.0852 -0.0288,0.17391 -0.0358,0.19715 -0.007,0.0232 -0.0186,0.12708 -0.0271,0.23165 -0.0216,0.26669 -0.038,0.37267 -0.0924,0.60623 -0.004,0.0149 -0.003,0.0279 -0.006,0.0418 -0.006,0.0252 -0.004,0.0339 -0.0112,0.0617 -0.0221,0.0871 -0.0501,0.27026 -0.0617,0.40785 -0.001,0.017 -0.003,0.0232 -0.004,0.0394 -0.004,0.0417 -0.0112,0.0512 -0.016,0.10348 -0.0267,0.28828 -0.0375,0.35882 -0.0912,0.5779 -0.008,0.0334 -0.0115,0.0932 -0.0184,0.12569 -0.0253,0.12104 -0.0481,0.27184 -0.0677,0.45591 -0.008,0.0707 -0.0167,0.0859 -0.0258,0.17867 -0.0212,0.21572 -0.0423,0.34759 -0.0777,0.48672 -0.051,0.20085 -0.0767,0.37821 -0.11336,0.79476 -0.0259,0.29341 -0.0248,0.28546 -0.08,0.44974 -0.0406,0.12155 -0.0413,0.13221 -0.037,0.34502 0.004,0.2106 0.006,0.22125 0.0431,0.28341 0.0218,0.0363 0.0604,0.14776 0.0876,0.2526 0.0175,0.0676 0.0323,0.10285 0.0481,0.14416 0.004,0.0101 0.0101,0.0371 0.0123,0.0418 0.001,0.002 0.003,0.004 0.004,0.006 0.0282,0.0602 0.067,0.11824 0.14294,0.21686 0.0172,0.0224 0.0491,0.0441 0.0727,0.0702 0.0814,0.0907 0.16538,0.17546 0.23658,0.22795 0.006,0.004 0.0141,0.0159 0.0196,0.0197 0.0232,0.0157 0.088,0.0426 0.14417,0.0603 0.0561,0.0177 0.10228,0.0377 0.10228,0.0443 0,0.007 -0.0163,0.0486 -0.0358,0.0924 -0.0194,0.0437 -0.0346,0.0864 -0.0346,0.0949 0,2e-4 9.9e-4,0.002 9.9e-4,0.003 l -9.9e-4,0.001 0.005,0.0122 c 0.004,0.0167 0.0144,0.0501 0.032,0.0949 l 0.0333,0.0863 c -4.3e-4,0.009 -0.006,0.0194 -0.0101,0.0283 l -0.0247,0.0358 c -0.0214,0.0309 -0.0968,0.10891 -0.16759,0.17252 -0.0251,0.0226 -0.0438,0.0456 -0.0678,0.069 -0.0137,0.0131 -0.0381,0.0339 -0.0455,0.0418 -0.009,0.0101 -0.009,0.0127 -0.0172,0.0222 -0.0966,0.10165 -0.1808,0.20116 -0.21072,0.26616 -0.009,0.0207 -0.013,0.0455 -0.0197,0.0689 -0.003,0.0115 -0.008,0.0238 -0.0101,0.0358 -0.0136,0.0651 -0.0188,0.13013 -0.006,0.17743 9.9e-4,0.004 0.009,0.0122 0.0112,0.0172 0.005,0.013 0.0183,0.0329 0.0283,0.0467 0.0151,0.0247 0.0232,0.0464 0.0431,0.069 0.0374,0.0423 0.0826,0.0973 0.0999,0.12198 0.0171,0.0247 0.0736,0.0736 0.12566,0.10844 0.0521,0.0349 0.13537,0.10033 0.18483,0.14539 l 0.09,0.0826 -0.003,0.24398 c -0.004,0.31791 -0.0212,0.53001 -0.0505,0.60009 -0.0129,0.0309 -0.0454,0.0797 -0.0714,0.10841 -0.026,0.0288 -0.066,0.0896 -0.0887,0.13432 -0.0226,0.0447 -0.0608,0.1062 -0.0851,0.13676 -0.0244,0.0306 -0.0679,0.0936 -0.0961,0.14047 -0.0282,0.0469 -0.0748,0.11778 -0.1035,0.15649 -0.0286,0.0387 -0.0678,0.10252 -0.0874,0.14171 -0.0195,0.0391 -0.0589,0.0989 -0.0876,0.13308 -0.0285,0.0342 -0.0769,0.11214 -0.10721,0.17373 -0.0304,0.0616 -0.0794,0.13843 -0.10965,0.17127 -0.0302,0.0329 -0.0708,0.0907 -0.09,0.12815 -0.019,0.0374 -0.0554,0.0877 -0.0802,0.11091 -0.0247,0.0232 -0.0696,0.0907 -0.0999,0.15032 -0.0301,0.0596 -0.0725,0.12969 -0.0949,0.15526 -0.0223,0.0255 -0.0603,0.084 -0.0838,0.13061 -0.0234,0.0464 -0.0701,0.12239 -0.10474,0.16881 -0.0345,0.0464 -0.0806,0.11653 -0.10227,0.15525 -0.0218,0.0388 -0.0628,0.0982 -0.0912,0.13308 -0.0283,0.0349 -0.078,0.11365 -0.11089,0.17498 -0.0328,0.0613 -0.0779,0.1349 -0.0999,0.16265 -0.022,0.0277 -0.064,0.0896 -0.0924,0.13801 -0.0223,0.0383 -0.0378,0.0581 -0.0493,0.0701 -0.0142,0.0145 -0.0226,0.0324 -0.037,0.0418 -0.002,10e-4 -0.008,0.009 -0.0111,0.0112 -0.0347,0.0253 -0.0728,0.0587 -0.0851,0.0814 -0.0138,0.0255 -0.0498,0.0595 -0.0801,0.0752 -0.0376,0.0194 -0.0667,0.0506 -0.0863,0.0924 -6.4e-4,9.9e-4 -0.008,0.006 -0.009,0.007 -0.0259,0.0499 -0.0356,0.17884 -0.0172,0.23413 0.009,0.0277 0.04,0.0706 0.0677,0.0949 0.0482,0.0422 0.0517,0.0437 0.14911,0.0346 0.1499,-0.0143 0.3725,-0.0585 0.52245,-0.10472 0.16529,-0.0508 0.24086,-0.0657 0.50765,-0.0937 0.24048,-0.0251 0.45566,-0.0641 0.53231,-0.0961 0.0287,-0.012 0.0888,-0.0278 0.13308,-0.0358 0.43432,-0.0778 2.07283,-0.0947 2.61595,-0.0271 0.0619,0.008 0.23939,0.0389 0.39431,0.069 0.43611,0.0847 0.96436,0.13441 1.05229,0.0998 0.0274,-0.0108 0.0561,-0.0481 0.0752,-0.0838 4e-4,-10e-4 -3.9e-4,-10e-4 0,-0.003 0.008,-0.0158 0.0197,-0.0323 0.0197,-0.0443 10e-6,-0.003 -0.0101,-0.015 -0.0112,-0.0197 -0.003,-0.0113 -0.0201,-0.0355 -0.0296,-0.0517 -0.0427,-0.0746 -0.1168,-0.17283 -0.17003,-0.20701 -0.0946,-0.0607 -0.22607,-0.20442 -0.29451,-0.3216 -0.031,-0.0531 -0.0668,-0.10607 -0.0802,-0.11705 -0.0132,-0.011 -0.0571,-0.0711 -0.0973,-0.13309 -0.0401,-0.0619 -0.097,-0.13966 -0.12566,-0.17374 -0.0287,-0.034 -0.0685,-0.0913 -0.0888,-0.12691 -0.0203,-0.0357 -0.0575,-0.0875 -0.0826,-0.11459 -0.025,-0.0271 -0.0584,-0.0736 -0.0739,-0.10473 -0.0155,-0.031 -0.0573,-0.0952 -0.0936,-0.1417 -0.0363,-0.0464 -0.0899,-0.12587 -0.11952,-0.17621 -0.0296,-0.0503 -0.0714,-0.10632 -0.0924,-0.12569 -0.0207,-0.0193 -0.0532,-0.065 -0.0714,-0.10104 -0.0182,-0.036 -0.0636,-0.10598 -0.10104,-0.15525 -0.0375,-0.0493 -0.0861,-0.12034 -0.10844,-0.15896 -0.0223,-0.0386 -0.0673,-0.0993 -0.0999,-0.1343 -0.0324,-0.035 -0.0733,-0.0912 -0.09,-0.12446 -0.0168,-0.0332 -0.0517,-0.0835 -0.0777,-0.11212 -0.0259,-0.0287 -0.076,-0.0997 -0.11214,-0.15772 -0.0883,-0.14153 -0.20718,-0.31617 -0.27231,-0.40047 -0.0946,-0.12242 -0.21563,-0.33511 -0.23658,-0.41524 -0.026,-0.10013 -0.0405,-0.48278 -0.0222,-0.55326 0.002,-0.004 3.3e-4,-0.0131 0.003,-0.0172 0.0126,-0.0294 0.0417,-0.051 0.13183,-0.0924 0.0654,-0.0301 0.14654,-0.0796 0.17991,-0.10967 0.0333,-0.0301 0.082,-0.0688 0.1072,-0.0862 0.007,-0.005 0.0166,-0.0267 0.0247,-0.0358 0.0155,-0.0178 0.0323,-0.0427 0.0481,-0.0701 0.0139,-0.024 0.024,-0.0375 0.0369,-0.0652 6.3e-4,-0.002 0.001,-0.003 0.003,-0.005 0.004,-0.009 0.004,-0.0156 0.007,-0.0247 0.0223,-0.0521 0.0473,-0.10653 0.0554,-0.15035 0.0143,-0.0769 0.012,-0.0984 -0.0234,-0.2304 -0.0215,-0.08 -0.0459,-0.15826 -0.0542,-0.17374 -0.008,-0.0154 -0.0867,-0.10231 -0.17498,-0.19346 -0.0281,-0.029 -0.0438,-0.0482 -0.0652,-0.0715 -0.0289,-0.0309 -0.0568,-0.0639 -0.0752,-0.09 -0.0725,-0.0993 -0.0816,-0.17601 -0.0776,-0.38322 l 9.9e-4,-0.0554 c 0.002,-0.0196 0.004,-0.0569 0.007,-0.0689 l 0.11583,-0.10845 c 0.1308,-0.12195 0.23738,-0.23751 0.32406,-0.34253 0.0143,-0.0153 0.0119,-0.0107 0.0271,-0.0271 0.0221,-0.0237 0.0375,-0.0581 0.0591,-0.0912 0.0186,-0.0276 0.0515,-0.0651 0.0628,-0.0876 0.0315,-0.0628 0.0757,-0.13929 0.0986,-0.17126 0.0181,-0.0254 0.0308,-0.0642 0.0443,-0.0999 2.8e-4,-6.2e-4 9.9e-4,-0.002 9.9e-4,-0.003 0.0188,-0.0503 0.0333,-0.11069 0.0431,-0.17991 2.3e-4,-9.9e-4 -2.2e-4,-0.003 0,-0.005 0.0104,-0.075 0.005,-0.17716 0.005,-0.27231 -2.5e-4,-0.0651 0.0108,-0.12307 0.004,-0.18976 -0.006,-0.0593 -0.0123,-0.0909 -0.0184,-0.14294 -0.004,-0.0338 6.4e-4,-0.0547 -0.004,-0.09 -0.008,-0.062 -0.0181,-0.10211 -0.0283,-0.1651 -0.008,-0.0528 -0.0167,-0.0973 -0.0247,-0.13924 -0.007,-0.0379 -0.0151,-0.10271 -0.021,-0.12445 -0.0579,-0.2187 -0.0701,-0.29127 -0.10104,-0.55942 -0.003,-0.022 -0.009,-0.0351 -0.0112,-0.0542 -0.004,-0.036 -0.006,-0.0437 -0.0101,-0.0862 -0.0104,-0.0986 -0.0446,-0.25943 -0.0777,-0.35858 -0.0101,-0.0299 -0.0118,-0.0697 -0.0196,-0.0998 -0.0211,-0.08 -0.0486,-0.25154 -0.0665,-0.42388 -0.0304,-0.29328 -0.0547,-0.43521 -0.1183,-0.6703 -0.0192,-0.0713 -0.0559,-0.2895 -0.0801,-0.48425 -0.0153,-0.12384 -0.0272,-0.18793 -0.0406,-0.27109 -0.003,-0.0158 -0.006,-0.0452 -0.009,-0.0592 -0.004,-0.0227 -0.0123,-0.0872 -0.0147,-0.0961 -0.07,-0.25059 -0.091,-0.35613 -0.1109,-0.54091 -0.009,-0.088 -0.0198,-0.14534 -0.0296,-0.21442 -0.004,-0.0405 -0.0122,-0.12777 -0.0122,-0.12939 0,-2e-5 -0.005,3e-5 -0.005,0 -0.0198,-0.11575 -0.0407,-0.20997 -0.0666,-0.28217 -0.037,-0.10312 -0.0782,-0.34645 -0.0986,-0.59021 -0.022,-0.26193 -0.0348,-0.32733 -0.0949,-0.46946 -0.0358,-0.0843 -0.0471,-0.14334 -0.0765,-0.40663 l -0.0346,-0.30805 0.0333,-0.0346 c 0.0178,-0.0193 0.0561,-0.0506 0.0851,-0.069 0.0289,-0.0183 0.0648,-0.0576 0.0802,-0.0875 0.0151,-0.0298 0.0501,-0.0836 0.0777,-0.11954 0.0385,-0.0506 0.0539,-0.0889 0.0665,-0.16511 l 0.016,-0.0986 -0.0566,-0.0802 c -0.0309,-0.0445 -0.0712,-0.12569 -0.09,-0.1799 -0.024,-0.0698 -0.0496,-0.11534 -0.09,-0.15526 -0.0889,-0.088 -0.11175,-0.12988 -0.14663,-0.28093 -0.0178,-0.0775 -0.0467,-0.19187 -0.0652,-0.25384 -0.0443,-0.14807 -0.0612,-0.23628 -0.0777,-0.42018 -0.007,-0.0837 -0.023,-0.1745 -0.0346,-0.20207 -0.0226,-0.054 -0.20484,-0.26411 -0.25013,-0.28832 z m 0.76518,21.62373 c -0.0272,-0.006 -0.0625,0.008 -0.12075,0.0394 -0.15458,0.0825 -0.76463,0.9655 -0.76272,1.10405 9.9e-4,0.0883 0.29833,0.42435 1.16318,1.31844 0.20229,0.20912 0.39853,0.38074 0.43619,0.38074 0.0625,0 0.31481,-0.51893 0.31544,-0.64937 1.9e-4,-0.0304 0.0337,-0.11846 0.0739,-0.1959 0.0403,-0.0775 0.11672,-0.27404 0.17004,-0.43743 0.0918,-0.2817 0.0918,-0.30379 -0.001,-0.42265 -0.14316,-0.18299 -1.01587,-0.94263 -1.0831,-0.94263 -0.0315,0 -0.085,-0.0498 -0.11829,-0.11213 -0.0265,-0.0496 -0.0454,-0.0767 -0.0727,-0.0826 z m -2.8057,0.005 c -0.076,-0.0134 -0.16488,0.0564 -0.45591,0.30311 -0.226,0.19153 -0.53701,0.45416 -0.69127,0.58282 -0.5129,0.42789 -0.55089,0.47703 -0.51998,0.67402 0.0155,0.0989 0.0576,0.35734 0.0937,0.57421 0.036,0.21685 0.0775,0.47597 0.0924,0.57666 l 0.001,0 c 0.0486,0.32715 0.17827,0.25096 1.17674,-0.69003 0.39447,-0.37178 0.77595,-0.72971 0.84774,-0.79601 0.13474,-0.1246 0.13565,-0.29165 0.003,-0.47069 -0.0346,-0.0464 -0.12608,-0.20782 -0.20332,-0.35856 -0.0773,-0.15074 -0.1966,-0.31179 -0.26491,-0.35733 -0.0293,-0.0195 -0.0535,-0.0338 -0.0789,-0.0381 z m 5.44259,0.23534 c -0.0347,-0.003 -0.0597,0.008 -0.0777,0.0296 -0.10659,0.12844 0.0989,1.15907 0.24892,1.24943 0.1425,0.0859 1.77284,1.14848 1.99615,1.3012 0.10806,0.0739 0.22665,0.1343 0.26369,0.1343 0.1156,0 0.14286,-0.21779 0.0505,-0.40291 -0.0486,-0.0975 -0.0888,-0.21975 -0.0888,-0.27233 0,-0.26042 -0.14053,-0.46846 -0.49904,-0.73561 -0.2055,-0.15313 -0.41633,-0.30992 -0.46825,-0.34872 -0.0518,-0.0387 -0.15029,-0.10879 -0.21808,-0.15525 -0.0677,-0.0464 -0.27811,-0.2003 -0.46824,-0.34132 -0.43343,-0.32148 -0.63515,-0.45015 -0.73932,-0.45837 z m -8.41956,0.1836 c -0.0668,-0.004 -0.17088,0.0489 -0.31791,0.15526 -0.40872,0.29565 -0.83731,0.59562 -1.28147,0.89581 -0.43004,0.29062 -0.58348,0.46106 -0.77876,0.86375 -0.22485,0.46376 -0.2792,0.61499 -0.24273,0.67401 0.0275,0.0445 0.066,0.0391 0.13185,-0.0172 0.0512,-0.0437 0.13261,-0.0938 0.18112,-0.11091 0.0485,-0.017 0.31253,-0.18781 0.58653,-0.37951 0.274,-0.19169 0.55014,-0.3713 0.61485,-0.39922 0.0647,-0.0279 0.27003,-0.16292 0.45592,-0.30066 0.18588,-0.13774 0.36652,-0.25175 0.40045,-0.25383 0.13266,-0.008 0.24221,-0.21745 0.3056,-0.58159 0.0637,-0.36642 0.0557,-0.53803 -0.0554,-0.54587 z m 14.22195,0.16266 c -0.0413,0.006 -0.0714,0.0361 -0.0714,0.09 0,0.025 0.0311,0.0734 0.0714,0.1109 0.0391,0.0364 0.0833,0.0905 0.0986,0.11953 0.0153,0.0291 0.0598,0.072 0.0986,0.0961 0.0388,0.024 0.0835,0.0694 0.0999,0.10104 0.0163,0.0316 0.0562,0.0719 0.0887,0.0888 0.0325,0.0167 0.074,0.0577 0.0912,0.0912 0.0172,0.0335 0.0631,0.0787 0.10105,0.10105 0.038,0.0225 0.0818,0.0661 0.0973,0.0961 0.0155,0.03 0.0606,0.07 0.0999,0.0888 0.0393,0.0185 0.0992,0.0593 0.13431,0.09 0.0352,0.0307 0.11349,0.0761 0.17375,0.10102 0.0603,0.025 0.12716,0.0671 0.14786,0.0937 0.0206,0.0264 0.0839,0.0685 0.14046,0.0936 0.0566,0.025 0.14312,0.0762 0.19345,0.1146 0.0503,0.0384 0.11714,0.0774 0.14787,0.0851 0.0307,0.008 0.0898,0.0431 0.13061,0.0801 0.0409,0.0371 0.12107,0.0815 0.17868,0.0986 0.0676,0.0201 0.12615,0.0547 0.16633,0.0986 0.0345,0.0377 0.0952,0.077 0.138,0.0888 0.0423,0.0117 0.1028,0.0448 0.13308,0.0739 0.0303,0.029 0.0842,0.0601 0.12076,0.0689 0.0365,0.009 0.0928,0.0141 0.12568,0.0122 0.0523,-0.003 0.0604,-0.0109 0.0604,-0.063 0,-0.0502 -0.0141,-0.0663 -0.09,-0.10595 -0.0493,-0.0257 -0.0972,-0.0612 -0.10721,-0.0789 -0.0328,-0.058 -0.13865,-0.14296 -0.20577,-0.16511 -0.0392,-0.013 -0.0783,-0.0443 -0.0961,-0.0789 -0.0164,-0.0318 -0.0627,-0.0752 -0.1035,-0.0961 -0.0408,-0.021 -0.0947,-0.0659 -0.11954,-0.0999 -0.0249,-0.0338 -0.073,-0.0761 -0.10718,-0.0937 -0.0587,-0.0304 -0.19052,-0.12907 -0.36597,-0.27478 -0.0437,-0.0364 -0.11074,-0.0815 -0.1491,-0.10105 -0.0383,-0.0195 -0.10088,-0.0616 -0.13924,-0.0937 -0.11496,-0.0957 -0.32274,-0.23309 -0.4288,-0.2834 -0.0547,-0.026 -0.11734,-0.0668 -0.13923,-0.0912 -0.0219,-0.0243 -0.0731,-0.0626 -0.1146,-0.0838 -0.0415,-0.0212 -0.1101,-0.0684 -0.15156,-0.10596 -0.0414,-0.0375 -0.1155,-0.085 -0.16388,-0.10598 -0.0485,-0.0211 -0.11445,-0.0668 -0.14662,-0.10103 -0.0447,-0.0475 -0.0966,-0.0662 -0.13802,-0.0603 z m -2.38921,0.016 c -0.0265,-0.0101 -0.0564,-0.007 -0.0949,0.006 -0.0367,0.0122 -0.0831,0.0351 -0.10227,0.0517 -0.0304,0.0264 -0.031,0.0341 -0.006,0.0617 0.0156,0.0173 0.0353,0.0596 0.0431,0.0924 0.0206,0.0863 0.0643,0.16712 0.11708,0.21564 0.0254,0.0233 0.0625,0.0926 0.0813,0.15278 0.0223,0.0711 0.0601,0.13395 0.10843,0.18114 0.0407,0.0399 0.0788,0.0993 0.0851,0.13062 0.015,0.0751 0.19955,0.23296 0.329,0.28216 0.0547,0.0208 0.12943,0.0607 0.16634,0.0887 0.0369,0.0281 0.0941,0.0574 0.12692,0.0652 0.0822,0.0197 0.17544,0.0682 0.1947,0.10104 0.0199,0.0342 0.14415,0.0973 0.22424,0.11459 0.0333,0.007 0.0943,0.0433 0.13555,0.0802 0.0459,0.0408 0.12087,0.0795 0.19345,0.0999 0.0686,0.0193 0.14471,0.0579 0.18237,0.0924 0.0373,0.0341 0.11947,0.0756 0.19221,0.0973 0.0697,0.0209 0.14674,0.057 0.17128,0.0802 0.0245,0.023 0.0883,0.0591 0.14171,0.0802 0.0535,0.0209 0.11627,0.0376 0.13923,0.0381 0.0457,0.001 0.097,-0.0462 0.11583,-0.10844 0.0129,-0.0425 -0.0528,-0.1688 -0.0875,-0.1688 -0.011,0 -0.0452,-0.0558 -0.0764,-0.12445 -0.0311,-0.0687 -0.0812,-0.15152 -0.1109,-0.18359 -0.0297,-0.0321 -0.0719,-0.0912 -0.0949,-0.13184 -0.0266,-0.0474 -0.0714,-0.0877 -0.12321,-0.1109 -0.0443,-0.0201 -0.11478,-0.0649 -0.15648,-0.0999 -0.0416,-0.0349 -0.1201,-0.0779 -0.17498,-0.0961 -0.0549,-0.0181 -0.10946,-0.0504 -0.12076,-0.0715 -0.0113,-0.0211 -0.0812,-0.0686 -0.15525,-0.10597 -0.0742,-0.0374 -0.14811,-0.0844 -0.16387,-0.1035 -0.0157,-0.019 -0.0772,-0.0561 -0.13679,-0.0826 -0.0596,-0.0264 -0.13526,-0.0701 -0.16757,-0.0973 -0.0323,-0.0272 -0.10369,-0.0718 -0.15895,-0.0998 -0.0552,-0.028 -0.12451,-0.0752 -0.15404,-0.10474 -0.0295,-0.0295 -0.091,-0.0652 -0.13675,-0.0789 -0.0456,-0.0136 -0.11817,-0.0556 -0.16019,-0.0937 -0.042,-0.038 -0.11791,-0.0837 -0.16881,-0.10103 -0.0513,-0.0174 -0.10687,-0.0533 -0.12446,-0.0802 -0.0238,-0.0364 -0.0461,-0.0589 -0.0726,-0.069 z m -15.27055,0.92413 c -0.0632,-0.007 -0.0885,-0.007 -0.11336,0.004 -0.0318,0.0133 -0.0949,0.0766 -0.0949,0.0949 0,0.0168 -0.0458,0.0397 -0.12075,0.0604 -0.0899,0.0248 -0.14604,0.0565 -0.18976,0.10721 -0.0375,0.0434 -0.0735,0.0651 -0.16141,0.0937 -0.0734,0.0239 -0.12187,0.0581 -0.14293,0.10227 -0.0105,0.022 -0.0248,0.0346 -0.0431,0.0381 -0.015,0.003 -0.0703,0.0217 -0.12323,0.0418 -0.0744,0.0284 -0.1022,0.0448 -0.12322,0.0715 -0.0563,0.0714 -0.0906,0.0989 -0.13801,0.11212 -0.0576,0.0161 -0.11768,0.068 -0.13307,0.1146 -0.008,0.0259 -0.0218,0.0386 -0.0542,0.053 -0.0576,0.0254 -0.092,0.0656 -0.11214,0.12938 -0.0166,0.0528 -0.0315,0.0695 -0.10226,0.1146 -0.0582,0.0371 -0.0799,0.0867 -0.0802,0.18728 -1.2e-4,0.0581 -0.004,0.0896 -0.0122,0.0949 -0.008,0.005 0.002,0.0109 0.0271,0.0147 0.071,0.0109 0.12039,0.009 0.14045,-0.005 0.0108,-0.007 0.0525,-0.0282 0.0937,-0.0455 0.11355,-0.0481 0.13095,-0.059 0.18482,-0.11583 0.0364,-0.0383 0.0622,-0.0552 0.0949,-0.064 0.0706,-0.0189 0.12017,-0.049 0.1688,-0.10104 0.0356,-0.038 0.0665,-0.0574 0.1491,-0.0937 0.11156,-0.0489 0.13889,-0.0679 0.17498,-0.12446 0.0126,-0.0196 0.0351,-0.041 0.0505,-0.0467 0.0155,-0.006 0.0515,-0.0185 0.0789,-0.0283 0.0314,-0.0112 0.0701,-0.0374 0.10595,-0.0715 0.0312,-0.0297 0.10293,-0.0821 0.15896,-0.11582 0.0878,-0.0527 0.1106,-0.072 0.16265,-0.13923 0.0332,-0.0428 0.0731,-0.0845 0.0888,-0.0937 0.0156,-0.009 0.0517,-0.0538 0.0814,-0.0986 0.0296,-0.0446 0.0761,-0.10032 0.1035,-0.12322 0.0273,-0.0229 0.0505,-0.0491 0.0505,-0.0591 0,-0.0204 -0.0428,-0.0753 -0.0701,-0.09 -0.0101,-0.005 -0.0548,-0.0135 -0.0999,-0.0184 z m 4.48148,3.73846 c -0.13056,0 -0.68264,0.74225 -0.87856,1.18168 -0.0342,0.0769 -0.0827,0.1527 -0.10719,0.16881 -0.0527,0.0347 -0.55533,1.07825 -0.73316,1.52177 -0.0683,0.1704 -0.15856,0.38638 -0.19963,0.47932 -0.30708,0.69442 -0.90954,2.99429 -1.04489,3.9886 -0.0287,0.21139 -0.0771,0.47754 -0.1072,0.59145 -0.0301,0.11391 -0.0683,0.27433 -0.0851,0.3561 -0.0336,0.16548 -0.12529,0.20146 -0.69002,0.27356 -0.24677,0.0314 -0.41974,0.0944 -0.59146,0.21438 -0.13348,0.0933 -0.35011,0.23595 -0.48179,0.31668 -0.28919,0.17732 -0.30692,0.31449 -0.0566,0.44483 0.10067,0.0524 0.28516,0.15888 0.40909,0.23657 0.20223,0.12681 0.26421,0.13812 0.61115,0.10844 l 0.38691,-0.0333 -0.0296,0.21563 c -0.0643,0.4772 -0.16251,1.08096 -0.23781,1.45398 -0.0437,0.21688 -0.10744,0.57174 -0.14172,0.7886 -0.0834,0.52794 -0.19434,1.1625 -0.27846,1.59199 -0.0378,0.19365 -0.0548,0.38975 -0.037,0.4362 0.0178,0.0464 0.0563,0.0851 0.0863,0.0851 0.0599,0 0.87888,-0.55147 1.44413,-0.97219 0.19772,-0.14717 0.40023,-0.26738 0.44975,-0.26738 0.0893,0 0.44449,0.18235 1.04121,0.53476 0.61113,0.36092 0.8614,0.48511 0.92783,0.45961 0.0486,-0.0185 0.0866,-0.54593 0.13679,-1.87664 0.0383,-1.01757 0.0817,-1.8918 0.0961,-1.94317 0.0344,-0.122 0.14333,-0.15936 0.57419,-0.1996 0.42682,-0.0398 0.50268,-0.0939 0.95619,-0.68017 0.32018,-0.41389 0.33938,-0.45505 0.26368,-0.56311 -0.0448,-0.0642 -0.17706,-0.17347 -0.29325,-0.24397 -0.11621,-0.0704 -0.32226,-0.21301 -0.45838,-0.31545 -0.23391,-0.17599 -0.27311,-0.18605 -0.71591,-0.18605 l -0.46947,0 -0.016,-1.2248 c -0.0293,-2.21647 0.1232,-5.43534 0.29203,-6.16711 0.0859,-0.37217 0.0746,-0.77507 -0.0221,-0.77507 z m 5.87385,0.0382 c -0.0306,-0.0158 -0.0555,-0.0156 -0.069,0.006 -0.018,0.0292 -0.0485,0.55708 -0.0677,1.17306 -0.0192,0.61597 -0.057,1.20878 -0.0838,1.31721 -0.0267,0.10843 -0.0746,0.84387 -0.1072,1.63388 -0.0325,0.79002 -0.0836,1.70167 -0.11335,2.02695 -0.0298,0.32531 -0.0684,0.89352 -0.0851,1.26301 -0.0165,0.36948 -0.0403,0.68231 -0.053,0.69496 -0.0127,0.0127 -0.13314,0.0363 -0.26739,0.0517 -0.38001,0.0438 -0.63642,0.16251 -1.09172,0.50519 -0.45086,0.33935 -0.45911,0.37135 -0.12816,0.53477 0.66077,0.32629 1.05043,0.49675 1.17306,0.51136 l 0.1417,0.016 0.0383,0.81696 c 0.021,0.4492 0.0516,1.24767 0.069,1.77434 0.0397,1.21152 0.0907,1.79248 0.1614,1.83844 0.0476,0.031 0.69202,-0.30087 0.77259,-0.398 0.0154,-0.0186 0.0926,-0.0666 0.17004,-0.10596 0.18271,-0.0928 0.30773,-0.16746 0.6543,-0.39062 0.15639,-0.10068 0.30566,-0.18359 0.33145,-0.18359 0.0258,0 0.0879,-0.0373 0.13801,-0.0826 0.0933,-0.0844 0.15621,-0.0535 1.00548,0.48919 0.2216,0.1416 0.58727,0.32528 0.64689,0.32528 0.0532,0 0.0417,-0.13843 -0.0677,-0.8157 -0.0351,-0.21688 -0.10068,-0.62314 -0.1454,-0.90197 -0.0446,-0.27883 -0.11066,-0.68385 -0.14661,-0.90072 -0.13108,-0.79106 -0.12973,-0.88951 0.016,-1.02641 0.0929,-0.0873 0.26003,-0.1437 0.55447,-0.18854 0.23152,-0.0353 0.47389,-0.0734 0.53846,-0.0851 0.14371,-0.0259 0.64198,-0.64784 0.64198,-0.80092 0,-0.0716 -0.14322,-0.21869 -0.40784,-0.41648 -0.67288,-0.50292 -0.75885,-0.5433 -1.19647,-0.55942 -0.55715,-0.0205 -0.63041,-0.0552 -0.67647,-0.32776 -0.0213,-0.12568 -0.0578,-0.24102 -0.0825,-0.25629 -0.0247,-0.0152 -0.0624,-0.14819 -0.0838,-0.29573 -0.0214,-0.14754 -0.074,-0.38305 -0.11583,-0.52245 -0.0418,-0.13941 -0.11687,-0.40557 -0.16757,-0.59146 -0.0507,-0.18588 -0.12787,-0.46365 -0.17128,-0.61855 -0.0433,-0.15491 -0.0932,-0.3452 -0.1109,-0.42266 -0.0317,-0.13901 -0.10512,-0.40903 -0.27479,-1.01408 -0.0478,-0.17038 -0.13993,-0.49957 -0.20454,-0.73193 -0.25279,-0.90918 -0.29251,-1.05133 -0.36349,-1.29625 -0.18852,-0.65047 -0.33202,-1.11459 -0.40046,-1.29504 -0.0411,-0.10844 -0.0897,-0.27657 -0.10844,-0.37335 -0.0275,-0.14194 -0.17041,-0.32943 -0.26245,-0.37705 z m 5.82457,0.45469 c -0.0188,-3e-4 -0.0358,0.008 -0.053,0.0222 -0.0914,0.0759 -0.0717,0.26385 0.0764,0.75164 0.047,0.15491 0.12017,0.39983 0.16389,0.5434 0.0436,0.14357 0.0801,0.30097 0.0801,0.34994 0,0.049 0.0335,0.19747 0.0752,0.33025 0.0416,0.13274 0.13166,0.45625 0.19961,0.71957 0.0679,0.26335 0.15876,0.6066 0.20085,0.76151 0.0745,0.27414 0.14644,0.55234 0.26247,1.01285 0.0312,0.12392 0.0914,0.35276 0.1343,0.50767 0.0428,0.15489 0.12071,0.44676 0.1725,0.64813 0.28476,1.10689 0.4791,1.76198 0.54586,1.84459 0.0313,0.0388 0.10449,0.0702 0.16266,0.0702 0.12599,0 0.14146,0.19324 0.0358,0.43373 -0.0984,0.22389 -0.13774,0.24056 -0.58159,0.24151 -0.33639,6.2e-4 -0.42722,0.023 -0.59146,0.14416 -0.1067,0.0788 -0.19167,0.16745 -0.18851,0.19716 0.003,0.0297 0.0103,0.0773 0.0147,0.10597 0.004,0.0286 0.28058,0.18561 0.61362,0.34993 0.52328,0.25816 0.64604,0.29748 0.8995,0.2871 l 0.29326,-0.0122 0.0346,0.21071 c 0.0195,0.11574 0.0575,0.28657 0.0838,0.37952 0.0262,0.0929 0.0634,0.33339 0.0826,0.53478 0.0193,0.20136 0.0705,0.54338 0.11459,0.76025 0.0439,0.21686 0.10662,0.58459 0.13924,0.81694 0.16499,1.17438 0.28175,1.77354 0.37582,1.92961 0.0386,0.0641 0.0546,0.0566 0.35611,-0.15525 0.15426,-0.10844 0.29471,-0.19716 0.31174,-0.19716 0.0318,0 0.37069,-0.22886 0.42142,-0.28462 0.0872,-0.0958 0.77244,-0.50283 0.84405,-0.50151 0.0907,0.002 0.66947,0.36572 0.90073,0.56681 0.23075,0.20067 0.50685,0.31302 0.5594,0.22796 0.0493,-0.0799 0.0158,-0.34135 -0.0554,-0.43251 -0.0252,-0.0321 -0.0709,-0.15947 -0.10104,-0.28218 -0.0301,-0.12269 -0.12149,-0.40045 -0.20331,-0.61731 -0.0819,-0.21687 -0.17106,-0.47017 -0.19839,-0.56311 -0.10732,-0.36512 -0.41184,-1.25013 -0.49286,-1.43305 -0.14351,-0.32401 -0.0476,-0.3867 0.7393,-0.48548 0.24023,-0.0301 0.31129,-0.0737 0.57667,-0.34995 0.34641,-0.36051 0.38667,-0.53159 0.14787,-0.62718 -0.0852,-0.0341 -0.2299,-0.11232 -0.32285,-0.17373 -0.093,-0.0615 -0.23305,-0.13735 -0.3105,-0.16882 -0.0775,-0.0315 -0.18828,-0.0846 -0.24643,-0.1183 -0.16145,-0.0935 -0.69205,-0.22054 -0.9217,-0.22054 -0.19322,0 -0.46576,-0.17091 -0.46576,-0.29205 0,-0.0492 -0.54931,-1.22771 -0.73068,-1.56734 -0.4556,-0.85306 -0.57176,-1.07258 -0.68265,-1.29503 -0.0695,-0.13942 -0.31833,-0.57783 -0.55324,-0.97465 -0.54281,-0.91688 -0.51231,-0.86728 -0.70851,-1.16567 -0.0917,-0.13941 -0.19266,-0.29787 -0.22427,-0.35116 -0.16801,-0.2833 -1.22196,-1.70541 -1.34677,-1.81751 -0.0346,-0.0309 -0.18593,-0.20277 -0.3364,-0.38197 -0.1703,-0.20284 -0.24645,-0.27879 -0.30311,-0.2797 z m -17.5883,0.23904 c -0.0309,0 -0.0566,0.0286 -0.0566,0.0629 0,0.0343 -0.0658,0.11241 -0.1454,0.17497 -0.18991,0.1494 -1.66414,2.03057 -2.10828,2.68987 -0.0464,0.0689 -0.21104,0.29857 -0.36596,0.51013 -0.15489,0.21156 -0.39536,0.5693 -0.53476,0.79477 -0.13942,0.22546 -0.31105,0.49423 -0.38076,0.59761 -0.0696,0.10338 -0.12691,0.19814 -0.12691,0.2107 0,0.0126 -0.0722,0.1317 -0.16141,0.26493 -0.0892,0.13322 -0.23013,0.36878 -0.31298,0.52368 -0.0829,0.1549 -0.17394,0.32071 -0.20208,0.3672 -0.0281,0.0464 -0.11601,0.2239 -0.19592,0.39429 -0.08,0.17039 -0.16528,0.34782 -0.18975,0.3943 -0.15207,0.28875 -0.23289,0.46594 -0.23289,0.51381 0,0.0301 -0.0473,0.16208 -0.10475,0.29204 -0.0574,0.12997 -0.1196,0.28078 -0.13922,0.3364 -0.0351,0.0995 -0.35252,0.26491 -0.50766,0.26491 -0.0793,0 -0.49783,0.18064 -0.65678,0.28341 -0.0464,0.03 -0.14803,0.0808 -0.22548,0.11213 -0.0775,0.0314 -0.21633,0.10706 -0.30927,0.16758 -0.093,0.0605 -0.25172,0.14758 -0.35242,0.19345 -0.10067,0.0459 -0.18359,0.0996 -0.18359,0.11953 0,0.0632 0.23606,0.38306 0.44358,0.60254 0.19473,0.20593 0.20985,0.21193 0.60379,0.21193 0.25465,0 0.42535,0.0259 0.46207,0.0701 0.0578,0.0699 -0.15349,0.80534 -0.31422,1.0942 -0.0377,0.0676 -0.0677,0.1711 -0.0677,0.22918 0,0.0581 -0.037,0.15427 -0.0825,0.2144 -0.0454,0.0601 -0.0838,0.14427 -0.0851,0.18607 -0.001,0.0417 -0.0386,0.15621 -0.0838,0.25382 -0.0941,0.20365 -0.23573,0.5939 -0.32037,0.88102 -0.0319,0.10843 -0.0816,0.22071 -0.10968,0.25014 -0.0281,0.0294 -0.0515,0.0937 -0.0517,0.1417 -1.9e-4,0.048 -0.0374,0.15845 -0.0826,0.2452 -0.10783,0.20669 -0.19568,0.53005 -0.15525,0.57051 0.0175,0.0175 0.0682,0.032 0.11213,0.032 0.067,0 1.00553,-0.58488 1.54639,-0.96358 0.24038,-0.1683 0.4481,-0.13261 0.95865,0.16511 0.25655,0.14961 0.55191,0.30572 0.65676,0.34749 0.17113,0.0681 0.19793,0.0657 0.26492,-0.0259 0.041,-0.0561 0.0894,-0.21929 0.10719,-0.36227 0.0178,-0.14298 0.0582,-0.38602 0.09,-0.54093 0.0317,-0.15491 0.0809,-0.44675 0.10968,-0.64812 0.0288,-0.20139 0.0775,-0.43573 0.1072,-0.52123 0.0298,-0.0855 0.071,-0.31433 0.0912,-0.50766 0.0202,-0.19331 0.0712,-0.45992 0.11458,-0.59268 0.0431,-0.13275 0.0789,-0.34023 0.0789,-0.46084 0,-0.32555 0.1035,-0.3955 0.5816,-0.39677 l 0.40414,-9.9e-4 0.53478,-0.48672 c 0.29433,-0.26788 0.57013,-0.55119 0.6124,-0.62841 0.0847,-0.15453 0.0866,-0.15148 -0.40292,-0.49658 -0.19549,-0.13782 -0.25577,-0.15009 -0.71591,-0.14293 -0.27626,0.004 -0.51498,-0.0133 -0.53107,-0.0394 -0.016,-0.026 -0.005,-0.18434 0.0234,-0.35118 0.0287,-0.16683 0.08,-0.48055 0.1146,-0.69742 0.12563,-0.78561 0.17126,-1.01683 0.22672,-1.15578 0.031,-0.0779 0.0789,-0.26811 0.10596,-0.42265 0.027,-0.15455 0.0746,-0.35682 0.10598,-0.44976 0.0314,-0.0929 0.11391,-0.35909 0.18359,-0.59144 0.0696,-0.23236 0.16057,-0.50245 0.20207,-0.60007 0.0415,-0.0976 0.0764,-0.21083 0.0777,-0.25262 0.001,-0.0417 0.0395,-0.12592 0.0851,-0.18605 0.0454,-0.0602 0.0826,-0.14492 0.0826,-0.18852 0,-0.14902 0.93197,-2.09047 1.1903,-2.47917 0.0886,-0.13323 0.1614,-0.26631 0.1614,-0.29573 0,-0.0294 0.0257,-0.053 0.0566,-0.053 0.0309,0 0.0554,-0.0514 0.0554,-0.11336 0,-0.062 -0.0245,-0.11213 -0.0554,-0.11213 z m 23.84168,0.85883 c -0.0156,0.002 -0.0291,0.0107 -0.0468,0.0283 -0.0407,0.0406 -0.0386,0.052 0.0308,0.12446 0.0418,0.0436 0.0764,0.0942 0.0764,0.11214 0,0.0179 0.0357,0.0735 0.0789,0.12446 0.0431,0.0508 0.0969,0.12019 0.11952,0.15277 0.12101,0.17422 0.26292,0.35533 0.46331,0.59146 0.0541,0.0639 0.0986,0.12779 0.0986,0.14169 0,0.0224 0.065,0.1099 0.2871,0.38568 0.0356,0.044 0.091,0.122 0.12197,0.17374 0.0309,0.0517 0.11526,0.17037 0.18731,0.26246 0.0719,0.0921 0.14581,0.19743 0.16511,0.23411 0.0192,0.0368 0.0716,0.10808 0.11582,0.15897 0.0441,0.0508 0.0802,0.11091 0.0802,0.13306 0,0.0221 0.0369,0.081 0.0814,0.13186 0.0443,0.0508 0.10155,0.13401 0.12693,0.18358 0.0253,0.0496 0.0625,0.0998 0.0838,0.11214 0.0212,0.0123 0.069,0.0774 0.10594,0.14415 0.18098,0.32811 0.30234,0.53339 0.43622,0.7381 0.0483,0.0738 0.0962,0.16674 0.10595,0.20577 0.0101,0.039 0.0495,0.10858 0.0888,0.15526 0.0392,0.0466 0.0907,0.14767 0.11336,0.22426 0.0228,0.0766 0.0589,0.15521 0.0813,0.17373 0.0223,0.0185 0.0684,0.11717 0.10228,0.22057 0.0339,0.10339 0.0785,0.20717 0.0986,0.23042 0.0201,0.0232 0.0634,0.14297 0.0961,0.26493 0.0326,0.12194 0.0769,0.25609 0.0986,0.29818 0.0218,0.042 0.0514,0.22455 0.0652,0.40538 0.021,0.27337 0.0347,0.33825 0.0838,0.39061 0.0991,0.10586 0.11457,0.18657 0.0887,0.47194 -0.0215,0.23634 -0.033,0.2754 -0.0973,0.33145 -0.0616,0.0537 -0.1053,0.063 -0.28586,0.063 -0.19648,0 -0.22108,0.007 -0.31544,0.0863 -0.19368,0.16306 -0.36878,0.34955 -0.36843,0.39183 6.4e-4,0.078 0.2135,0.27662 0.33023,0.30803 0.061,0.0164 0.13379,0.0557 0.16142,0.0863 0.0276,0.0304 0.11535,0.074 0.19591,0.0973 0.0806,0.0234 0.16958,0.068 0.19716,0.0986 0.0275,0.0304 0.0858,0.063 0.12937,0.0726 0.0436,0.0101 0.1361,0.0549 0.20577,0.10105 0.0696,0.0461 0.21952,0.10909 0.33271,0.14045 0.11318,0.0313 0.21982,0.07 0.23781,0.0851 0.0179,0.0149 0.0483,0.0871 0.0665,0.16019 0.0182,0.0732 0.0575,0.17426 0.0875,0.22549 0.0299,0.0512 0.0686,0.15278 0.0864,0.22549 0.0175,0.0727 0.0668,0.19609 0.10966,0.27354 0.0427,0.0774 0.0921,0.2092 0.10966,0.29327 0.0175,0.0841 0.0559,0.19142 0.0851,0.23904 0.0291,0.0476 0.068,0.14345 0.0863,0.21317 0.0181,0.0697 0.0568,0.16869 0.0863,0.21932 0.0294,0.0507 0.0728,0.17087 0.0973,0.2674 0.0244,0.0965 0.0693,0.2103 0.0999,0.25258 0.0304,0.0422 0.0757,0.15673 0.0999,0.25384 0.0241,0.0971 0.0671,0.20952 0.0961,0.25014 0.0289,0.0406 0.0717,0.14672 0.0949,0.23536 0.0232,0.0887 0.0607,0.18265 0.0851,0.20946 0.0243,0.0268 0.0656,0.1367 0.0912,0.24397 0.0256,0.10729 0.0758,0.23319 0.11089,0.28094 0.0353,0.0478 0.0732,0.13647 0.0838,0.19715 0.018,0.10283 0.21184,0.54581 0.27355,0.62472 0.0336,0.043 0.0166,0.0451 0.1417,-0.0184 0.0579,-0.0295 0.18426,-0.1312 0.27971,-0.22549 0.0955,-0.0943 0.19605,-0.17834 0.22425,-0.18728 0.0282,-0.009 0.0701,-0.0532 0.0937,-0.0986 0.0235,-0.0453 0.0554,-0.0826 0.0701,-0.0826 0.0291,0 0.15413,-0.1021 0.29573,-0.24273 0.14804,-0.147 0.25232,-0.18904 0.37459,-0.14911 0.0571,0.0186 0.13069,0.0611 0.16387,0.0937 0.0333,0.0325 0.14482,0.11635 0.24769,0.18605 0.10288,0.0697 0.23897,0.16776 0.30187,0.21811 0.12393,0.0992 0.1835,0.11104 0.26124,0.0542 0.0478,-0.0351 0.0471,-0.0457 -0.0112,-0.23781 -0.0336,-0.11063 -0.0791,-0.2159 -0.10103,-0.23411 -0.022,-0.0182 -0.0574,-0.0917 -0.0789,-0.16389 -0.0215,-0.0722 -0.0724,-0.17923 -0.11212,-0.2378 -0.0397,-0.0585 -0.0907,-0.17408 -0.11458,-0.2563 -0.0239,-0.0823 -0.0637,-0.16515 -0.0875,-0.18483 -0.0237,-0.0196 -0.0568,-0.0912 -0.0739,-0.15895 -0.017,-0.0677 -0.0675,-0.16941 -0.11213,-0.22548 -0.0445,-0.056 -0.0814,-0.12806 -0.0814,-0.1602 0,-0.0634 -0.23587,-0.56632 -0.30189,-0.6432 -0.0223,-0.026 -0.0528,-0.10187 -0.0678,-0.16881 -0.0148,-0.0669 -0.0576,-0.16635 -0.0949,-0.22056 -0.0373,-0.0542 -0.0867,-0.15161 -0.10967,-0.21688 -0.023,-0.0652 -0.0703,-0.15674 -0.10473,-0.20331 -0.0401,-0.0544 -0.0669,-0.13949 -0.0751,-0.2378 -0.0146,-0.17726 0.003,-0.19553 0.23288,-0.22796 0.0775,-0.011 0.1917,-0.049 0.25385,-0.0851 0.0623,-0.0361 0.17442,-0.0751 0.24889,-0.0863 0.1542,-0.0232 0.27619,-0.11152 0.329,-0.23906 0.0351,-0.0846 0.0328,-0.0893 -0.11583,-0.22426 -0.0835,-0.0758 -0.18787,-0.15369 -0.23164,-0.17249 -0.0437,-0.0188 -0.11537,-0.067 -0.15897,-0.1072 -0.0435,-0.0402 -0.13188,-0.11127 -0.19591,-0.15773 -0.0641,-0.0464 -0.16849,-0.12597 -0.23289,-0.17744 -0.0643,-0.0515 -0.16792,-0.12151 -0.22919,-0.15525 -0.0613,-0.0338 -0.1373,-0.0771 -0.17003,-0.0961 -0.0355,-0.0207 -0.16527,-0.0343 -0.32038,-0.0346 -0.22262,-3.6e-4 -0.26855,-0.0101 -0.31667,-0.0579 -0.031,-0.0309 -0.0574,-0.0717 -0.0579,-0.0912 -4.4e-4,-0.0194 -0.0378,-0.0846 -0.0838,-0.14541 -0.0461,-0.0608 -0.0838,-0.1261 -0.0838,-0.1454 0,-0.0192 -0.0318,-0.0725 -0.0702,-0.1183 -0.0384,-0.0456 -0.0944,-0.14069 -0.12444,-0.2107 -0.0299,-0.0699 -0.0678,-0.13605 -0.0851,-0.14662 -0.017,-0.0107 -0.0684,-0.0923 -0.11335,-0.18114 -0.0448,-0.0889 -0.10074,-0.17747 -0.12446,-0.19715 -0.0237,-0.0197 -0.0576,-0.0788 -0.0752,-0.13184 -0.0175,-0.0531 -0.0553,-0.10976 -0.0851,-0.12568 -0.0297,-0.0158 -0.0542,-0.0448 -0.0542,-0.0652 0,-0.0204 -0.042,-0.0933 -0.0924,-0.16142 -0.0919,-0.1244 -0.15539,-0.2197 -0.26,-0.38814 -0.0309,-0.0499 -0.10333,-0.15467 -0.16143,-0.23288 -0.0581,-0.0783 -0.10595,-0.1591 -0.10595,-0.1799 0,-0.0208 -0.0242,-0.0549 -0.053,-0.0752 -0.0287,-0.0203 -0.0777,-0.0887 -0.10968,-0.15156 -0.032,-0.063 -0.0793,-0.13162 -0.10473,-0.1528 -0.0255,-0.0212 -0.0712,-0.0859 -0.10104,-0.14415 -0.0297,-0.0582 -0.0712,-0.1157 -0.0924,-0.12815 -0.0213,-0.0124 -0.0601,-0.0608 -0.0863,-0.10721 -0.026,-0.0464 -0.10007,-0.15775 -0.16511,-0.24644 -0.0651,-0.0888 -0.17551,-0.23891 -0.24521,-0.33392 -0.0696,-0.095 -0.17459,-0.22896 -0.23288,-0.29821 -0.0582,-0.0692 -0.12568,-0.16295 -0.1491,-0.20822 -0.0234,-0.0452 -0.0541,-0.0826 -0.069,-0.0826 -0.0148,0 -0.0585,-0.0479 -0.0961,-0.10598 -0.0376,-0.0581 -0.12958,-0.17279 -0.20454,-0.25505 -0.075,-0.0822 -0.18695,-0.21292 -0.2489,-0.2908 -0.5756,-0.72343 -1.86064,-2.02398 -2.22903,-2.25614 -0.0677,-0.0426 -0.12199,-0.0886 -0.12199,-0.10227 0,-0.0137 -0.0514,-0.0453 -0.11336,-0.0702 -0.062,-0.0248 -0.11215,-0.0576 -0.11215,-0.0727 0,-0.015 -0.0275,-0.0415 -0.0604,-0.0591 -0.0237,-0.0127 -0.0409,-0.0179 -0.0566,-0.016 z m -29.72168,0.77506 c -0.25098,0 -1.88591,1.43292 -2.65415,2.32638 -0.15491,0.18015 -0.32943,0.37043 -0.38691,0.42263 -0.14873,0.13512 -1.54321,1.94482 -1.8101,2.34856 -0.12289,0.18588 -0.23656,0.35046 -0.25259,0.36595 -0.0786,0.076 -0.77736,1.17599 -1.09543,1.72508 -0.27035,0.46671 -0.44737,0.69742 -0.53723,0.69742 -0.0276,0 -0.0836,0.0311 -0.12445,0.0701 -0.0409,0.039 -0.13818,0.103 -0.21563,0.14171 -0.39509,0.19751 -1.10015,0.68114 -1.11637,0.76519 -0.0102,0.0527 0.05,0.27586 0.1343,0.49658 0.15292,0.40009 0.15381,0.40226 0.0566,0.68877 -0.0535,0.15806 -0.11994,0.33853 -0.14662,0.40048 -0.0793,0.18402 -0.57065,1.44603 -0.76766,1.97152 -0.0463,0.1239 -0.11992,0.29672 -0.16388,0.38443 -0.093,0.18526 -0.1043,0.35445 -0.0259,0.40292 0.0495,0.0305 0.49592,-0.17353 0.56559,-0.25875 0.0155,-0.019 0.0883,-0.0544 0.16265,-0.0777 0.0744,-0.0233 0.26472,-0.11876 0.42265,-0.21195 0.36049,-0.21268 0.50306,-0.2127 0.72823,-9.9e-4 0.0984,0.0925 0.31388,0.27341 0.47932,0.4017 0.16543,0.1283 0.3236,0.23288 0.35117,0.23288 0.0554,0 0.27723,-0.40839 0.27723,-0.51013 0,-0.0353 0.0346,-0.14388 0.0765,-0.24151 0.17295,-0.40348 0.31848,-0.80403 0.32037,-0.88224 0.001,-0.0458 0.0383,-0.13332 0.0838,-0.19346 0.0454,-0.0601 0.0826,-0.14822 0.0826,-0.1959 0,-0.0807 0.14046,-0.46911 0.31914,-0.88596 0.0418,-0.0976 0.0752,-0.2081 0.0752,-0.24521 0,-0.0371 0.0353,-0.14759 0.0776,-0.24519 0.0422,-0.0976 0.13839,-0.3405 0.21317,-0.54095 0.12241,-0.3281 0.15846,-0.37285 0.3598,-0.44852 0.12299,-0.0461 0.25436,-0.11076 0.29203,-0.14292 0.17223,-0.14707 0.83918,-0.75239 1.00916,-0.91552 0.25092,-0.24078 0.24501,-0.40396 -0.0271,-0.69004 -0.17231,-0.18111 -0.2565,-0.22672 -0.41279,-0.22672 -0.10806,0 -0.21051,-0.0134 -0.22673,-0.0296 -0.081,-0.0811 0.21793,-1.17458 0.50028,-1.82981 0.25839,-0.59959 1.02538,-1.96296 1.21987,-2.16865 0.0586,-0.062 0.14155,-0.19502 0.18484,-0.29571 0.0431,-0.1007 0.0986,-0.1836 0.12197,-0.1836 0.0234,0 0.12305,-0.12454 0.22302,-0.27725 0.10007,-0.15272 0.38789,-0.52623 0.63952,-0.8305 0.25161,-0.30425 0.5503,-0.66536 0.66292,-0.80215 0.11263,-0.13679 0.24891,-0.29557 0.30312,-0.3524 0.11874,-0.12451 0.123,-0.15895 0.021,-0.15895 z m 35.59183,0.93892 c -0.0163,-0.006 -0.0298,0.004 -0.0517,0.0259 -0.055,0.0544 -0.0347,0.10188 0.0604,0.13802 0.0381,0.0144 0.0677,0.0479 0.0677,0.0776 0,0.0289 0.0266,0.0778 0.0591,0.1072 0.0325,0.0294 0.0761,0.0845 0.0961,0.1232 0.0201,0.0387 0.14014,0.17183 0.26738,0.29573 0.12723,0.12391 0.25182,0.24991 0.27724,0.27971 0.0254,0.0298 0.0796,0.0871 0.11952,0.12692 0.0399,0.0399 0.0987,0.11003 0.13062,0.15648 0.0319,0.0464 0.12653,0.15669 0.20948,0.24398 0.083,0.0874 0.20049,0.21682 0.26243,0.28833 0.062,0.0714 0.14751,0.1636 0.18979,0.20455 0.0422,0.0409 0.0844,0.0954 0.0924,0.12075 0.008,0.0254 0.052,0.0687 0.0986,0.0961 0.0464,0.0274 0.0851,0.0681 0.0851,0.09 0,0.0218 0.0339,0.0762 0.0765,0.12075 0.13994,0.14652 0.36936,0.43607 0.50766,0.64199 0.0352,0.0522 0.0764,0.0949 0.0912,0.0949 0.0148,0 0.0469,0.0387 0.0714,0.0864 0.0506,0.0978 0.2839,0.4106 0.32529,0.43618 0.0149,0.009 0.0464,0.0639 0.0701,0.12075 0.0237,0.0568 0.0663,0.12776 0.0949,0.15896 0.0285,0.0311 0.0791,0.11159 0.11214,0.17743 0.0331,0.0658 0.0702,0.11952 0.0838,0.11952 0.0136,0 0.0464,0.0537 0.0728,0.11953 0.0262,0.0658 0.0708,0.14501 0.0999,0.17619 0.029,0.0311 0.0723,0.10331 0.0961,0.16021 0.0238,0.0569 0.0744,0.14879 0.11214,0.20452 0.0377,0.0557 0.0779,0.14241 0.0887,0.19223 0.0109,0.0498 0.0553,0.15924 0.0999,0.24275 0.0444,0.0835 0.0813,0.18507 0.0814,0.22549 3.4e-4,0.1579 0.0582,0.28152 0.1836,0.39182 0.15293,0.13462 0.16353,0.22938 0.0481,0.44113 -0.0718,0.13174 -0.085,0.14216 -0.19839,0.15034 -0.0711,0.005 -0.12665,0.0249 -0.13555,0.0481 -0.0264,0.0688 0.048,0.23909 0.12569,0.2871 0.0411,0.0254 0.1205,0.0913 0.17621,0.14664 0.0557,0.0553 0.1444,0.13567 0.19714,0.17868 0.0527,0.0429 0.19063,0.158 0.30682,0.25505 0.11617,0.097 0.24343,0.19688 0.28217,0.22303 0.0914,0.0617 0.20954,0.15755 0.30434,0.24644 0.0415,0.0389 0.10965,0.0924 0.15032,0.11828 0.0406,0.0259 0.0823,0.0812 0.0924,0.12199 0.0103,0.0408 0.0504,0.12259 0.09,0.18237 0.0395,0.0598 0.0848,0.16364 0.0999,0.23042 0.015,0.0667 0.0528,0.1482 0.0838,0.18114 0.0309,0.0329 0.0736,0.12606 0.0949,0.20698 0.0214,0.081 0.0584,0.16931 0.0826,0.19594 0.0241,0.0266 0.0685,0.12239 0.0999,0.21317 0.0312,0.0908 0.0751,0.18516 0.0961,0.20947 0.0211,0.0243 0.0604,0.11234 0.0875,0.19592 0.0272,0.0835 0.079,0.19518 0.1146,0.24766 0.0356,0.0525 0.073,0.13624 0.0838,0.18607 0.0108,0.0498 0.0441,0.12551 0.074,0.16759 0.0297,0.042 0.0715,0.13638 0.0937,0.2107 0.0221,0.0743 0.0725,0.1792 0.11214,0.23288 0.0395,0.0537 0.0805,0.14635 0.09,0.20577 0.009,0.0595 0.0486,0.15484 0.0874,0.21193 0.0389,0.0571 0.0866,0.16353 0.10597,0.23658 0.0194,0.073 0.062,0.16654 0.0949,0.20824 0.0328,0.0416 0.0798,0.14262 0.10351,0.22427 0.0237,0.0817 0.0661,0.17913 0.0949,0.21563 0.0287,0.0366 0.0677,0.12306 0.0863,0.19223 0.0185,0.0692 0.0459,0.14785 0.0604,0.17496 0.0144,0.0271 0.0471,0.0493 0.0739,0.0493 0.0886,0 0.23757,-0.10046 0.29821,-0.20085 0.0881,-0.14571 0.25098,-0.36349 0.27229,-0.36349 0.0103,0 0.0567,-0.0616 0.10352,-0.13677 0.10893,-0.17524 0.20396,-0.20101 0.33761,-0.0924 0.22052,0.17916 0.28237,0.22335 0.39309,0.28462 0.0645,0.0358 0.13816,0.0574 0.16264,0.0481 0.0686,-0.0264 0.0562,-0.19641 -0.021,-0.29081 -0.0359,-0.0437 -0.0868,-0.13778 -0.11335,-0.20947 -0.0267,-0.0716 -0.0736,-0.15288 -0.10351,-0.17989 -0.0298,-0.027 -0.0692,-0.0953 -0.0875,-0.15157 -0.0182,-0.0562 -0.0691,-0.14381 -0.11337,-0.19467 -0.0441,-0.0508 -0.0802,-0.11616 -0.0802,-0.14541 0,-0.0292 -0.0318,-0.0911 -0.0701,-0.13677 -0.0385,-0.0456 -0.0944,-0.13948 -0.12446,-0.20948 -0.03,-0.07 -0.0687,-0.13699 -0.0863,-0.14787 -0.0175,-0.0109 -0.0647,-0.0852 -0.10349,-0.16509 -0.10534,-0.21647 -0.20118,-0.38932 -0.26369,-0.47441 -0.0306,-0.0416 -0.0884,-0.14326 -0.12816,-0.22549 -0.0651,-0.13444 -0.14287,-0.27788 -0.30558,-0.56188 -0.0298,-0.0518 -0.0633,-0.14175 -0.074,-0.19961 -0.0215,-0.11551 -0.0589,-0.0716 0.44361,-0.52245 0.0811,-0.0727 0.14765,-0.14614 0.14784,-0.16265 2.1e-4,-0.0165 -0.0407,-0.0696 -0.0912,-0.1183 -0.0503,-0.0486 -0.11181,-0.11145 -0.13679,-0.13924 -0.025,-0.0278 -0.092,-0.088 -0.14909,-0.1343 -0.057,-0.0464 -0.13485,-0.11653 -0.17252,-0.15525 -0.0898,-0.0924 -0.0767,-0.081 -0.34253,-0.31051 -0.22888,-0.19756 -0.44127,-0.30983 -0.6617,-0.35119 -0.11816,-0.0222 -0.28156,-0.17034 -0.36225,-0.32775 -0.0288,-0.0562 -0.0722,-0.10913 -0.0961,-0.11829 -0.0239,-0.009 -0.0431,-0.0321 -0.0431,-0.0505 0,-0.0298 -0.0445,-0.0951 -0.276,-0.40539 -0.0347,-0.0464 -0.0944,-0.12815 -0.13308,-0.18236 -0.0387,-0.0542 -0.11449,-0.15578 -0.16881,-0.22549 -0.0543,-0.0697 -0.13488,-0.18028 -0.17867,-0.24522 -0.0437,-0.065 -0.10539,-0.1466 -0.13801,-0.18235 -0.0326,-0.0358 -0.11017,-0.12832 -0.1725,-0.20578 -0.0624,-0.0774 -0.13942,-0.17322 -0.17127,-0.21194 -0.0318,-0.0387 -0.0863,-0.10932 -0.12077,-0.15772 -0.15384,-0.21557 -0.30634,-0.40238 -0.43989,-0.53846 -0.0794,-0.0809 -0.14416,-0.15757 -0.14416,-0.17006 0,-0.0124 -0.0759,-0.10348 -0.16881,-0.20207 -0.0929,-0.0986 -0.16881,-0.18846 -0.16881,-0.20084 0,-0.0675 -1.64339,-1.78143 -2.18468,-2.27833 -0.31669,-0.29072 -0.66514,-0.59245 -0.68386,-0.59268 -0.0103,-1.4e-4 -0.0944,-0.0712 -0.18729,-0.15773 -0.0929,-0.0866 -0.21417,-0.18534 -0.26863,-0.22056 -0.0544,-0.0353 -0.11575,-0.0856 -0.13676,-0.11089 -0.0211,-0.0253 -0.0599,-0.0456 -0.0851,-0.0455 -0.0252,1.4e-4 -0.0791,-0.0406 -0.12074,-0.0912 -0.0354,-0.0427 -0.055,-0.0655 -0.0714,-0.0715 z m -42.16559,2.04668 c -0.0797,0 -0.35871,0.25246 -0.92908,0.84404 -0.45546,0.47241 -0.51856,0.54339 -0.98328,1.09912 -0.12953,0.15491 -0.28951,0.3452 -0.3561,0.42264 -0.19271,0.22414 -1.21533,1.55246 -1.38868,1.80393 -0.0464,0.0674 -0.21687,0.30081 -0.37952,0.51998 -0.16264,0.21919 -0.29571,0.42168 -0.29571,0.44853 0,0.0454 -0.0927,0.17937 -0.54464,0.79476 -0.10116,0.13773 -0.39144,0.38487 -0.67523,0.5742 -0.90756,0.60549 -1.03383,0.71178 -1.03383,0.8761 0,0.17214 0.0769,0.25156 0.29697,0.30681 0.0854,0.0214 0.16749,0.0603 0.18359,0.0863 0.016,0.026 -0.10386,0.30118 -0.26739,0.61117 -0.39845,0.75524 -0.44377,0.83666 -0.61486,1.13115 -0.1879,0.32341 -0.60279,1.09315 -0.73562,1.36404 -0.0562,0.11468 -0.10227,0.25975 -0.10227,0.32283 0,0.1099 0.0123,0.108 0.29572,-0.0431 0.59278,-0.31611 0.62464,-0.32047 0.81943,-0.12568 0.0949,0.0949 0.19981,0.1725 0.23287,0.1725 0.0516,0 0.35951,-0.5984 0.59515,-1.15457 0.0393,-0.093 0.16225,-0.3591 0.27231,-0.59144 0.11008,-0.23237 0.25558,-0.54991 0.32407,-0.70482 0.55766,-1.26134 0.85725,-1.74791 1.17798,-1.91481 0.22598,-0.11762 1.29173,-1.19998 1.32952,-1.3505 0.0249,-0.0993 -0.0223,-0.2295 -0.16881,-0.47069 -0.11146,-0.18349 -0.20206,-0.38871 -0.20206,-0.45468 0,-0.13029 0.17031,-0.38698 0.86868,-1.30982 0.51182,-0.67633 1.40987,-1.89119 1.86801,-2.52599 0.16769,-0.23236 0.34313,-0.4623 0.38937,-0.51136 0.0984,-0.10439 0.11095,-0.22057 0.0234,-0.22057 z m 48.00002,0.43372 c -0.0458,0.0786 4.42615,5.66984 4.55294,5.93917 0.13146,0.19104 0.23904,0.36886 0.23904,0.3943 0,0.0254 0.17288,0.32384 0.38445,0.66292 0.53332,0.85474 1.26247,2.36448 1.56119,3.23326 0.13768,0.40047 0.27909,0.77328 0.31298,0.82805 0.10012,0.16177 0.18712,0.1166 0.37951,-0.19469 0.22,-0.35598 0.21536,-0.50602 -0.0247,-0.84034 -0.10127,-0.14109 -0.21989,-0.31556 -0.26368,-0.38817 -0.0437,-0.0725 -0.2364,-0.39571 -0.42879,-0.71834 -0.1924,-0.32265 -0.47346,-0.76198 -0.62473,-0.9759 -0.24412,-0.34521 -0.26962,-0.42702 -0.22426,-0.72947 0.0448,-0.29969 0.0234,-0.37353 -0.17866,-0.60746 -0.12637,-0.14631 -0.31595,-0.36672 -0.42143,-0.49042 -0.10546,-0.12369 -0.32706,-0.30057 -0.49164,-0.39307 -0.16456,-0.0925 -0.28373,-0.20019 -0.29818,-0.23288 -0.10168,-0.23018 -4.32898,-5.73525 -4.47409,-5.48696 z m -22.34457,8.45777 -0.4325,0.25506 c -0.23745,0.14055 -0.56878,0.32692 -0.73683,0.41403 -0.16808,0.0872 -0.33544,0.21275 -0.3709,0.27847 -0.0499,0.0926 -0.13354,4.85395 -0.0901,5.11729 0.006,0.0329 0.90684,0.0603 2.00355,0.0603 1.72709,0 2.00074,-0.0163 2.04173,-0.12321 0.026,-0.0678 0.006,-0.50705 -0.0443,-0.9759 -0.28322,-2.64027 -0.32771,-3.09842 -0.33023,-3.43287 -0.001,-0.20202 -0.0452,-0.42456 -0.0986,-0.49412 -0.0533,-0.0696 -0.51289,-0.34479 -1.02026,-0.6124 l -0.92169,-0.48672 z m -9.63819,0.20577 -0.51136,0.28095 c -0.2817,0.1548 -0.69151,0.38008 -0.9106,0.50027 -0.21906,0.12019 -0.43072,0.24789 -0.46946,0.2834 -0.072,0.0661 -0.14416,0.68348 -0.29326,2.50506 -0.0465,0.56956 -0.11302,1.37538 -0.14786,1.79159 -0.0349,0.41622 -0.0457,0.78872 -0.0234,0.82803 0.0235,0.0413 0.48033,0.0462 1.08432,0.0112 0.57395,-0.0334 1.51038,-0.0832 2.07995,-0.11089 l 1.03504,-0.0505 -0.0209,-2.27092 c -0.012,-1.24868 -0.0404,-2.38416 -0.0628,-2.52353 -0.0333,-0.20723 -0.13091,-0.30919 -0.53601,-0.56064 -0.27242,-0.1691 -0.65858,-0.3918 -0.85884,-0.49535 l -0.36472,-0.18853 z m 19.22834,0.18607 c -0.0543,10e-4 -0.24122,0.10878 -0.41648,0.2378 -0.17524,0.12906 -0.39046,0.26711 -0.47808,0.30683 -0.3574,0.162 -0.46458,0.37799 -0.40786,0.82557 0.0596,0.47022 0.26801,2.77558 0.34255,3.79144 0.0446,0.60993 0.0648,0.66992 0.24397,0.73808 0.10729,0.0408 0.88087,0.10427 1.72015,0.14172 0.83925,0.0375 1.59801,0.0643 1.68562,0.0591 0.21734,-0.0126 0.24337,-0.31972 0.0826,-0.98821 -0.0705,-0.2936 -0.16718,-0.71371 -0.21317,-0.93277 -0.046,-0.21907 -0.11262,-0.52311 -0.14909,-0.67647 -0.0365,-0.15336 -0.12014,-0.52996 -0.18606,-0.83666 -0.32152,-1.49569 -0.31614,-1.47979 -0.62102,-1.72136 -0.15965,-0.12651 -0.31151,-0.23044 -0.33763,-0.23044 -0.0261,0 -0.29988,-0.1614 -0.60747,-0.35857 -0.30759,-0.19715 -0.60367,-0.35754 -0.65799,-0.35609 z m -28.41679,0.55572 c -0.0902,0 -0.30581,0.0889 -0.47933,0.19838 -0.17351,0.10953 -0.33215,0.19961 -0.3524,0.19961 -0.0202,0 -0.27014,0.14626 -0.55572,0.3253 -0.54903,0.34426 -0.58838,0.40703 -0.6925,1.10527 -0.0785,0.52593 -0.17081,1.06598 -0.34994,2.03435 -0.14218,0.76866 -0.25113,1.44421 -0.33022,2.0516 l -0.0493,0.3783 0.43619,0 c 0.23957,0 0.71808,-0.0342 1.0646,-0.0765 0.34653,-0.0421 0.97692,-0.0995 1.401,-0.12691 0.42408,-0.0274 0.83129,-0.0932 0.90444,-0.14665 0.10933,-0.08 0.14533,-0.33033 0.20331,-1.40716 0.0388,-0.72036 0.10367,-1.7905 0.14417,-2.37813 0.0404,-0.58761 0.0498,-1.1323 0.021,-1.21001 -0.071,-0.19141 -1.16063,-0.94755 -1.36527,-0.94755 z m 36.89181,0.11583 c -0.0841,0.0267 -0.32124,0.22814 -0.52738,0.44851 -0.29215,0.31231 -0.36326,0.4397 -0.32285,0.57544 0.0286,0.0958 0.0855,0.38894 0.1257,0.65183 0.0656,0.42839 0.12731,0.76342 0.39922,2.15139 0.0428,0.21908 0.11024,0.61323 0.14909,0.8761 0.0388,0.26288 0.11381,0.64488 0.16636,0.84898 0.10973,0.42637 0.17579,0.45854 0.95617,0.47069 0.28481,0.004 0.69646,0.0361 0.91552,0.0702 0.53609,0.0836 1.1749,0.0947 1.28889,0.0222 0.0986,-0.0627 0.1,-0.0547 -0.3327,-1.61171 -0.11567,-0.41621 -0.24085,-0.88169 -0.27724,-1.03504 -0.0364,-0.15335 -0.1262,-0.49368 -0.20085,-0.75656 -0.25446,-0.89589 -0.2922,-1.03637 -0.33517,-1.27532 -0.0609,-0.33806 -0.18746,-0.45786 -1.06954,-1.003 -0.53364,-0.32983 -0.83081,-0.46688 -0.93522,-0.43374 z m -45.04276,0.80338 c -0.16517,0.0201 -0.35759,0.14714 -0.72576,0.39923 -0.28431,0.19467 -0.53881,0.35364 -0.56558,0.35364 -0.0267,0 -0.16502,0.089 -0.30682,0.19715 -0.28211,0.21518 -0.2916,0.24528 -0.72698,2.27216 -0.0705,0.32862 -0.16184,0.7415 -0.20209,0.91675 -0.12928,0.56273 -0.4153,1.90438 -0.45466,2.13046 -0.036,0.20612 -0.0213,0.21933 0.25381,0.21933 0.16082,0 0.44227,-0.0324 0.62596,-0.0726 0.18372,-0.0402 0.71054,-0.13365 1.17059,-0.20699 0.46004,-0.0734 0.90977,-0.16249 0.99931,-0.19716 0.17474,-0.0676 0.23533,-0.30461 0.47438,-1.87293 0.0668,-0.43813 0.15514,-0.97615 0.19716,-1.19523 0.18439,-0.96194 0.34493,-2.17047 0.30311,-2.27955 -0.025,-0.0653 -0.24291,-0.2552 -0.48425,-0.4214 -0.25586,-0.17623 -0.39302,-0.26282 -0.55818,-0.24275 z m 52.07732,0.3561 c -0.047,-6.3e-4 -0.16783,0.0851 -0.26737,0.191 -0.18695,0.19893 -0.18744,0.3183 -0.005,0.96234 0.0373,0.13144 0.10595,0.38293 0.15155,0.55818 0.16216,0.62306 0.34593,1.27727 0.40417,1.43427 0.0325,0.0877 0.10083,0.33789 0.15155,0.55694 0.0507,0.21909 0.14795,0.5957 0.21563,0.83666 0.0677,0.24098 0.1633,0.58132 0.21195,0.75658 0.12456,0.44873 0.17918,0.49978 0.6432,0.59022 0.22663,0.0441 0.57295,0.11344 0.77011,0.15402 0.47769,0.0983 0.93645,0.10918 0.98945,0.0234 0.0237,-0.0383 -0.0841,-0.42361 -0.24027,-0.85638 -0.15625,-0.43275 -0.35064,-0.98505 -0.43128,-1.22602 -0.75042,-2.24234 -0.86346,-2.49941 -1.25313,-2.86732 -0.64555,-0.60948 -1.25089,-1.1127 -1.34064,-1.11389 z m -58.39107,1.03381 c -0.0564,0 -0.36572,0.29626 -0.68756,0.658 -0.54844,0.61643 -0.60235,0.70991 -0.85145,1.49341 -0.14616,0.45976 -0.29492,0.90799 -0.33146,0.99561 -0.0366,0.0878 -0.16224,0.48176 -0.2797,0.87608 -0.23832,0.79999 -0.41748,1.35416 -0.51506,1.59322 -0.10818,0.26507 -0.16566,0.60082 -0.11582,0.68141 0.0613,0.0989 0.0534,0.0993 0.7849,-0.0851 0.3451,-0.0871 0.68867,-0.15773 0.76397,-0.15773 0.22628,0 0.37207,-0.24651 0.51751,-0.87609 0.076,-0.32861 0.16874,-0.7052 0.20578,-0.83665 0.15329,-0.54393 0.38558,-1.43307 0.54709,-2.09102 0.0688,-0.28056 0.25456,-1.01195 0.40293,-1.59077 0.0557,-0.21725 0.0343,-0.28736 -0.13678,-0.45838 -0.11097,-0.11095 -0.24789,-0.20208 -0.30435,-0.20208 z m 63.49729,0.32285 c -0.10989,0.0118 -0.0296,0.22275 0.74916,2.38552 0.18143,0.50385 0.3852,1.07815 0.45222,1.27532 0.15473,0.45511 0.50186,1.42402 0.58529,1.63263 0.0351,0.0878 0.0978,0.24667 0.13924,0.35365 0.053,0.13714 0.19164,0.23307 0.46823,0.32284 0.63629,0.20651 0.68922,0.15716 0.45962,-0.42388 -0.10667,-0.26994 -0.22474,-0.56297 -0.26246,-0.6506 -0.0378,-0.0877 -0.14936,-0.37415 -0.24767,-0.63704 -0.0983,-0.26288 -0.22252,-0.58569 -0.27603,-0.71713 -0.0535,-0.13144 -0.19457,-0.49053 -0.31419,-0.79724 -0.11961,-0.30668 -0.24672,-0.62827 -0.28217,-0.71589 -0.0355,-0.0878 -0.12305,-0.31722 -0.19469,-0.5089 -0.13852,-0.37068 -1.05132,-1.50673 -1.21864,-1.51683 -0.022,-0.001 -0.0421,-0.004 -0.0579,-0.003 z m -28.16298,9.11698 c -5.21416,0 -8.7208,0.0711 -12.1075,0.24397 -0.41623,0.0213 -1.67121,0.073 -2.78845,0.11459 -1.97835,0.0737 -3.97964,0.20063 -4.38167,0.27848 -0.20685,0.04 -1.52523,0.15927 -3.10636,0.28093 -0.79583,0.0613 -2.25794,0.1895 -4.06254,0.35611 -0.28478,0.0263 -0.71519,0.0804 -0.95617,0.11951 -0.24097,0.039 -0.70767,0.11219 -1.03628,0.16267 -0.32859,0.0505 -0.88412,0.13985 -1.23465,0.19838 -0.3505,0.0585 -0.90606,0.14713 -1.23464,0.19714 -0.32861,0.05 -0.90168,0.1397 -1.27411,0.19963 -0.3724,0.06 -0.94548,0.14891 -1.27408,0.19838 -0.94246,0.14185 -1.51632,0.24678 -2.03188,0.37212 -0.26289,0.0639 -0.60323,0.14751 -0.75658,0.18482 -0.15333,0.0372 -0.69136,0.16107 -1.19521,0.27601 -0.50385,0.11492 -1.04187,0.24128 -1.19523,0.27971 -0.15334,0.0384 -0.69014,0.16716 -1.19399,0.28588 -0.50386,0.11872 -0.953,0.24167 -0.99685,0.27353 -0.0437,0.0318 -0.61688,0.33782 -1.27408,0.68018 -0.6572,0.34234 -1.27231,0.6642 -1.36774,0.71467 -0.29362,0.15539 -0.8231,0.88786 -0.8231,1.13977 0,0.12544 0.0238,0.25174 0.053,0.28094 0.0962,0.0962 0.0927,0.0985 1.6992,-0.64197 0.60986,-0.28112 1.14533,-0.52263 1.61416,-0.727 0.32066,-0.13976 0.73389,-0.25577 1.454,-0.40908 0.17523,-0.0373 0.55062,-0.12233 0.83542,-0.18853 0.28479,-0.0661 0.64389,-0.1444 0.79722,-0.17374 0.15336,-0.0294 0.4036,-0.0817 0.55695,-0.11705 1.84265,-0.42556 3.35223,-0.70026 5.21834,-0.95002 0.30668,-0.041 0.89851,-0.13267 1.31474,-0.20332 0.98495,-0.16719 1.56168,-0.25441 2.3806,-0.35856 0.36753,-0.0467 0.69804,-0.10323 0.73437,-0.12569 0.0702,-0.0433 1.16188,-0.16076 2.54079,-0.27354 1.32405,-0.10829 2.68166,-0.23061 3.54502,-0.31913 2.64143,-0.27085 3.78413,-0.34635 7.84659,-0.51753 0.6353,-0.0267 2.01539,-0.0857 3.06693,-0.13183 2.50087,-0.10979 13.65027,-0.20161 16.36225,-0.13433 5.83166,0.14469 8.33901,0.24139 9.24884,0.35487 0.54766,0.0683 1.28215,0.15548 1.63266,0.19347 1.74716,0.18929 2.14562,0.23436 3.06691,0.35363 0.54768,0.0709 1.3009,0.16338 1.67333,0.20454 1.1972,0.13233 1.93466,0.22918 2.3461,0.30928 0.55756,0.10856 1.1583,0.21033 2.59251,0.43743 0.67912,0.10754 1.35978,0.21568 1.51314,0.24028 0.15336,0.0246 0.49751,0.0769 0.76519,0.11581 0.46342,0.0675 0.97573,0.20623 2.22287,0.60502 0.30669,0.0981 0.82597,0.26017 1.15457,0.35981 1.28634,0.39001 1.5283,0.48069 2.213,0.83172 0.38979,0.19983 0.74996,0.36349 0.80093,0.36349 0.0532,0 0.0924,-0.12215 0.0924,-0.28586 0,-0.30473 -0.15616,-0.4989 -1.00547,-1.24575 -0.40827,-0.35903 -0.51803,-0.40276 -2.33994,-0.95495 -0.15333,-0.0464 -0.35102,-0.11133 -0.43865,-0.14293 -0.0877,-0.0316 -0.37416,-0.1202 -0.63704,-0.19715 -0.26289,-0.077 -0.54941,-0.16577 -0.63704,-0.19838 -0.37983,-0.14156 -0.77967,-0.25533 -1.13361,-0.3216 -0.20909,-0.0391 -0.48713,-0.0915 -0.61858,-0.11707 -0.13143,-0.0255 -0.41797,-0.0815 -0.63702,-0.12322 -0.32934,-0.0629 -1.43195,-0.27587 -2.6295,-0.50889 -0.13146,-0.0255 -0.52559,-0.10435 -0.8761,-0.17497 -1.05387,-0.21234 -1.37,-0.25847 -3.78405,-0.55079 -0.5915,-0.0716 -1.36225,-0.16073 -1.71276,-0.19839 -0.3505,-0.0376 -0.79844,-0.0906 -0.99561,-0.11704 -0.19716,-0.0265 -0.80651,-0.10066 -1.35416,-0.16512 -0.54767,-0.0644 -1.26464,-0.15236 -1.59324,-0.19469 -0.3286,-0.0422 -1.17068,-0.10012 -1.87171,-0.12815 -0.701,-0.028 -1.49052,-0.0608 -1.75339,-0.0739 -3.98302,-0.19952 -5.67781,-0.23658 -11.03305,-0.23658 z m -3.45874,4.55664 0.10718,0.17127 c 0.0588,0.0942 0.13152,0.17128 0.16142,0.17128 0.27504,-10e-6 0.936,1.02701 1.11391,1.72999 0.29566,1.1682 0.32822,1.52359 0.33762,3.76683 0.005,1.24866 0.0385,2.31472 0.0739,2.36948 l 0,9.9e-4 c 0.0498,0.0771 0.81959,0.0986 3.40208,0.0986 l 3.33676,0 0.0517,-0.27356 c 0.0281,-0.1505 0.0274,-0.31269 -0.003,-0.36103 -0.082,-0.13255 -0.0512,-3.54007 0.0382,-4.22395 0.20198,-1.54528 0.48837,-2.37539 1.01041,-2.92891 0.16948,-0.17969 0.24103,-0.31346 0.19346,-0.36104 -0.0449,-0.0449 -2.04605,-0.0918 -4.94972,-0.11705 l -4.87456,-0.0431 z m -5.81842,0.0431 c -0.0781,0 -0.22878,0.0187 -0.33392,0.0406 -0.10514,0.022 -0.88919,0.0581 -1.74354,0.0814 -2.15007,0.0583 -2.23223,0.0618 -2.56912,0.10841 -0.16431,0.0228 -0.53216,0.043 -0.81695,0.0443 -0.69395,0.003 -2.96681,0.082 -3.06694,0.1072 -0.0437,0.011 -0.40166,0.0351 -0.79599,0.0542 -0.71781,0.035 -0.95726,0.0794 -0.92659,0.17128 0.009,0.027 0.0814,0.0743 0.1614,0.10472 0.22755,0.0867 0.84621,0.65539 0.96851,0.89088 0.0313,0.0602 0.0725,0.10968 0.0912,0.10968 0.0186,0 0.0569,0.0581 0.0851,0.12937 0.0281,0.0711 0.0817,0.16563 0.11953,0.20948 0.0378,0.0438 0.0828,0.14265 0.0987,0.21932 0.0157,0.0767 0.0522,0.16643 0.0814,0.19961 0.0292,0.0331 0.0725,0.14629 0.0961,0.25138 0.0235,0.10508 0.0669,0.23057 0.0973,0.27847 0.0304,0.0479 0.0669,0.18509 0.0814,0.30558 0.0144,0.12048 0.0658,0.36323 0.11337,0.53847 0.0808,0.29794 0.0853,0.40696 0.0851,1.69181 -2.6e-4,1.12907 -0.012,1.4312 -0.0666,1.69303 -0.0366,0.17524 -0.0868,0.51281 -0.1109,0.75039 -0.0382,0.3758 -0.0349,0.4453 0.0196,0.5286 0.0696,0.10638 0.10889,0.11318 0.35116,0.0579 0.0919,-0.021 0.92779,-0.0677 1.85691,-0.10349 0.92914,-0.0358 1.72739,-0.0788 1.77313,-0.0961 0.0741,-0.0281 1.15522,-0.0748 2.27956,-0.0973 0.26673,-0.005 0.42621,-0.0255 0.46824,-0.0604 0.0787,-0.0652 0.0815,-0.26071 0.007,-0.47071 -0.0308,-0.0873 -0.069,-0.28272 -0.0838,-0.43373 -0.0148,-0.15101 -0.0518,-0.38116 -0.0826,-0.51258 -0.17359,-0.74145 -0.17597,-3.2229 -0.004,-3.64728 0.0305,-0.0752 0.0671,-0.24069 0.0814,-0.36721 0.0142,-0.12652 0.0613,-0.29578 0.10475,-0.37704 0.0435,-0.0813 0.0788,-0.17778 0.0788,-0.21318 0,-0.0354 0.045,-0.14837 0.0999,-0.25137 0.0547,-0.10301 0.10071,-0.20909 0.10104,-0.23534 3.5e-4,-0.0262 0.0632,-0.13692 0.14047,-0.24644 0.0774,-0.10954 0.17343,-0.24833 0.21316,-0.30928 0.18725,-0.28702 0.58814,-0.65867 0.88965,-0.82434 0.0822,-0.0451 0.15003,-0.0962 0.15033,-0.11213 3.1e-4,-0.0159 0.0115,-0.0689 0.0247,-0.11828 0.0216,-0.0807 0.0101,-0.09 -0.11828,-0.09 z m 21.26516,0.20083 0.37704,0.38815 c 0.3713,0.38287 0.74974,0.99611 0.85393,1.38376 0.0294,0.10954 0.12289,0.44986 0.20822,0.75657 0.284,1.02061 0.3619,1.84447 0.36966,3.90111 l 0.007,1.99368 0.43867,0.0184 c 0.24097,0.0101 0.81404,0.0553 1.27409,0.0998 0.46004,0.0444 1.21327,0.10159 1.67332,0.12815 0.46004,0.0266 1.05185,0.0761 1.31473,0.10967 0.66127,0.0846 0.86132,0.0889 0.96357,0.021 0.0624,-0.0413 0.0683,-0.2799 0.0197,-0.81446 -0.0378,-0.41624 -0.0918,-1.30926 -0.11953,-1.98383 -0.10526,-2.56649 0.40772,-4.42787 1.35418,-4.92016 0.12455,-0.0648 0.20682,-0.13695 0.1836,-0.16018 -0.0744,-0.0745 -1.27368,-0.26243 -1.68564,-0.26369 -0.21908,-6.3e-4 -0.68454,-0.0355 -1.03505,-0.0777 -0.3505,-0.0421 -1.22886,-0.13253 -1.95177,-0.20084 -0.72293,-0.0683 -1.6013,-0.15804 -1.9518,-0.19962 -0.35051,-0.0415 -1.00949,-0.0997 -1.46509,-0.12815 l -0.82925,-0.0517 z m -36.70452,0.68142 c -0.0607,-0.006 -0.15362,-0.003 -0.30311,0.007 -0.19938,0.0131 -0.41425,0.0433 -0.4781,0.0678 -0.0638,0.0244 -0.34102,0.062 -0.61486,0.0826 -0.27383,0.0205 -0.70301,0.0711 -0.95494,0.11337 -0.25192,0.0421 -0.66879,0.096 -0.92538,0.1195 -0.25659,0.0235 -0.50956,0.0597 -0.56311,0.0802 -0.0535,0.0203 -0.30111,0.0477 -0.54956,0.0616 -0.24845,0.0138 -0.62238,0.0587 -0.83049,0.0999 -0.20812,0.0409 -0.61103,0.0922 -0.89581,0.11336 -0.28479,0.0211 -0.62513,0.0661 -0.75656,0.0999 -0.13146,0.0336 -0.46303,0.0806 -0.73685,0.10351 -0.43467,0.0366 -0.64743,0.0581 -0.74302,0.0765 -0.0143,0.003 3.4e-4,0.0368 0.0333,0.0752 0.0329,0.0384 0.0713,0.1007 0.0851,0.13925 0.0136,0.0386 0.0658,0.0902 0.11582,0.11459 0.0499,0.0244 0.17127,0.14004 0.26985,0.25753 0.0986,0.11748 0.20796,0.24596 0.24397,0.28462 0.0361,0.0386 0.0947,0.13282 0.12938,0.20949 0.0347,0.0767 0.0794,0.16552 0.0999,0.19839 0.11896,0.19145 0.33289,0.7152 0.40663,0.99559 0.13737,0.52251 0.16535,0.64622 0.19961,0.87733 0.021,0.14239 0.0778,0.49149 0.12568,0.77628 0.0778,0.46115 0.087,0.66163 0.0864,1.83227 -6.4e-4,1.07481 -0.0141,1.3993 -0.0739,1.78175 -0.0587,0.37653 -0.0635,0.47905 -0.0234,0.52738 0.0274,0.033 0.10646,0.0597 0.17496,0.0591 0.18615,-0.002 1.05273,-0.10916 1.09544,-0.13553 0.0203,-0.0127 0.2945,-0.0496 0.60869,-0.0825 0.31421,-0.0329 0.69687,-0.0862 0.85022,-0.1183 0.15334,-0.0322 0.48029,-0.0766 0.72698,-0.0999 0.24669,-0.0231 0.49333,-0.0592 0.54834,-0.0801 0.055,-0.0209 0.3011,-0.0564 0.54709,-0.0789 0.64746,-0.0591 0.78309,-0.0833 0.84773,-0.14785 0.0767,-0.0768 0.074,-0.43622 -0.009,-1.14717 -0.0394,-0.33934 -0.0712,-1.00987 -0.0813,-1.71276 -0.0145,-1.01718 -0.007,-1.22082 0.0652,-1.70658 0.0451,-0.30341 0.0826,-0.60999 0.0826,-0.68017 0,-0.0702 0.0441,-0.29577 0.0987,-0.50274 0.0543,-0.20695 0.0994,-0.42178 0.0999,-0.47685 4.1e-4,-0.055 0.0363,-0.16715 0.0801,-0.24891 0.0438,-0.0818 0.08,-0.17968 0.0802,-0.21809 9e-5,-0.0385 0.0539,-0.17785 0.11953,-0.30929 0.0655,-0.13144 0.11944,-0.26253 0.11952,-0.29079 8e-5,-0.0282 0.0331,-0.0997 0.0739,-0.15896 0.0408,-0.0593 0.13709,-0.20602 0.2144,-0.32652 0.0774,-0.12048 0.21577,-0.28807 0.30682,-0.37212 0.14055,-0.12976 0.15806,-0.16204 0.11458,-0.21441 -0.0212,-0.0254 -0.0501,-0.04 -0.11089,-0.0455 z m 49.66596,0.70728 c -0.16344,0.0118 -0.14111,0.11814 0.0381,0.37088 0.89289,1.25872 1.34512,3.58859 1.26791,6.53061 -0.0374,1.42322 -0.0351,1.45179 0.12817,1.48234 0.0915,0.0171 0.36402,0.068 0.605,0.11337 0.24097,0.0451 0.6889,0.12231 0.99562,0.17127 0.30669,0.0489 0.71835,0.11892 0.91551,0.15526 0.19716,0.0362 0.49883,0.0688 0.66908,0.0738 l 0.30929,0.0101 -0.0542,-0.37951 c -0.0294,-0.20812 -0.10514,-0.93384 -0.16881,-1.61295 -0.1994,-2.12649 -0.13857,-3.4455 0.20826,-4.49995 0.17144,-0.5213 0.31618,-0.73263 0.65552,-0.95497 0.32048,-0.20999 0.33459,-0.20375 -1.21988,-0.5483 -0.28478,-0.0631 -0.73272,-0.15852 -0.99562,-0.21196 -0.26286,-0.0534 -0.67576,-0.14387 -0.91673,-0.20083 -0.24098,-0.0569 -0.65264,-0.1435 -0.91552,-0.19347 -0.26289,-0.05 -0.5857,-0.12321 -0.71714,-0.16265 -0.13145,-0.0394 -0.39169,-0.0965 -0.5779,-0.12566 -0.0966,-0.0151 -0.17224,-0.0212 -0.22672,-0.0172 z m -61.65148,0.94139 c -0.0616,0 -0.26571,0.0478 -0.45345,0.1072 -0.18774,0.0595 -0.4852,0.14892 -0.66045,0.19837 -1.56592,0.44162 -2.57221,0.73155 -3.3725,0.97098 l -0.58407,0.17498 0.2255,0.24891 c 0.12437,0.13752 0.26546,0.32267 0.31298,0.41031 0.13886,0.256 0.33363,1.13723 0.42263,1.91111 0.10453,0.91058 0.10772,3.44861 0.005,4.3669 -0.0432,0.38632 -0.0573,0.73824 -0.0308,0.7812 0.0501,0.0811 0.60125,0.0306 1.03012,-0.0936 0.13144,-0.038 0.66454,-0.16859 1.18413,-0.2908 l 0.94385,-0.22302 0.0184,-2.54817 c 0.0181,-2.52877 0.0491,-2.87752 0.34747,-4.02311 0.19101,-0.73335 0.58418,-1.65495 0.75287,-1.76327 0.10307,-0.0661 0.003,-0.22795 -0.14171,-0.22795 z m 16.63458,27.5099 0,1.36159 0,1.36033 1.23466,-0.0455 1.23465,-0.0468 0.0467,-1.31473 0.0455,-1.31477 -1.28147,0 -1.28026,0 z m -56.08196,2.69604 0,7.9735 0,7.97228 35.56968,-0.0406 35.56842,-0.0394 0,-7.88602 0,-7.88726 -1.35416,0 -1.35419,0 -0.0418,6.65752 -0.0418,6.65753 -1.47247,-0.0455 -1.47123,-0.0455 -0.0431,-4.02925 -0.0418,-4.02926 -1.31231,0.0468 -1.31103,0.0455 -0.0431,4.02311 -0.0418,4.0231 -1.8298,0 -1.82981,0 0,-3.02749 0,-3.02748 -1.43305,0 -1.43427,0 0,3.02748 0,3.02749 -1.82734,0 -1.82732,0 -0.0455,-2.03188 -0.0443,-2.03065 -1.31351,-0.0468 -1.31474,-0.0455 0,2.07748 0,2.07748 -23.50036,0 -23.50036,0 -0.0283,-6.25337 c -0.0161,-3.43937 -0.0369,-6.43355 -0.0455,-6.65261 -0.0153,-0.3873 -0.0517,-0.3986 -1.3246,-0.44359 l -1.30983,-0.0468 z m 75.3596,0 -1.31474,0.0468 c -0.72292,0.0254 -1.29599,0.0994 -1.2741,0.16512 0.0219,0.0657 0.0394,3.63295 0.0394,7.92667 l 0,7.80717 1.27533,0 1.27409,0 0,-7.97351 0,-7.97227 z m 81.89144,0.33145 0,7.72707 0,7.72709 7.16889,0 7.17011,0 0,-3.33924 c 0,-3.83947 -0.16391,-4.58671 -1.23342,-5.61141 -1.14719,-1.09914 -1.38323,-1.16059 -4.7008,-1.21864 l -2.98808,-0.0517 0,1.28642 0,1.28764 2.38307,0 c 3.55805,0 3.67193,0.10075 3.67193,3.25792 l 0,1.99985 -4.38167,0 -4.38167,0 0,-6.53308 0,-6.53186 -1.3542,0 -1.35416,0 z m -103.24039,0.14664 0,1.44042 0,1.44044 1.44044,0 1.43919,0 -0.0455,-1.3936 -0.0455,-1.39485 -1.39485,-0.0455 -1.3936,-0.0468 z m 3.98245,0 0,1.44659 0,1.44659 1.39483,-0.0455 1.39362,-0.0468 0,-1.35419 0,-1.35418 -1.39362,-0.0455 -1.39483,-0.0468 z m -80.63338,0.0604 -1.33446,0.0222 -1.33323,0.0208 -0.0222,1.27162 c -0.0121,0.69926 -0.004,1.31739 0.0173,1.3739 0.03,0.0781 0.35475,0.1035 1.35664,0.1035 l 1.31598,0 0,-1.39608 0,-1.39606 z m 4.06253,0 -1.37389,0.0222 -1.37389,0.0208 -0.0222,1.27162 c -0.0121,0.69926 -0.004,1.31739 0.0173,1.3739 0.0301,0.0784 0.36166,0.1035 1.39607,0.1035 l 1.35664,0 0,-1.39608 0,-1.39606 z m 10.99732,0 -1.37636,0.0222 -1.37513,0.0208 -0.0222,1.27162 c -0.0122,0.69926 -0.004,1.31877 0.0184,1.37637 0.0314,0.0822 0.33038,0.0997 1.37636,0.0826 l 1.33569,-0.0222 0.0222,-1.37512 0.021,-1.37636 z m -6.53555,0.004 0,1.39361 0,1.39484 1.39361,0 1.39483,0 0,-1.39484 0,-1.39361 -1.39483,0 -1.39361,0 z m 101.85295,0.19715 c -0.67393,0 -1.26509,0.0362 -1.35174,0.0826 -0.14233,0.0763 -0.15524,0.17792 -0.15524,1.34062 0,0.69217 0.0252,1.2833 0.0554,1.31352 0.0302,0.03 0.64834,0.0452 1.37389,0.0333 l 1.31967,-0.0222 0.0222,-1.19522 c 0.0126,-0.65722 0.003,-1.27532 -0.021,-1.3739 -0.0434,-0.17609 -0.0664,-0.17867 -1.24327,-0.17867 z m 3.71012,0 c -1.19339,0 -1.21586,0.003 -1.263,0.17868 -0.0665,0.24934 -0.0625,2.49061 0.005,2.55802 0.0303,0.03 0.63084,0.0452 1.33446,0.0333 l 1.27903,-0.0222 0.0222,-1.26422 c 0.015,-0.8644 -0.008,-1.29853 -0.0701,-1.37391 -0.0706,-0.0851 -0.3693,-0.10966 -1.30736,-0.10966 z m -109.71309,4.49259 -1.40716,0.15278 c -1.72232,0.18796 -3.84038,1.13733 -5.13578,2.30173 -1.93413,1.73856 -3.59553,5.11879 -3.59553,7.31552 l 0,0.87732 10.47732,0 10.47734,0 0,-5.29474 0,-5.2947 -2.19701,0.005 c -2.63036,0.007 -3.96939,0.28323 -4.93247,1.01778 -1.56212,1.19149 -1.90959,4.31678 -0.68509,6.16712 l 0.60993,0.92169 -1.80515,0 -1.8064,0 0,-4.08472 0,-4.08471 z m 157.24487,0.0455 c -1.15488,-0.0136 -1.48218,0.006 -1.55996,0.0924 -0.0541,0.0602 -0.19771,0.35993 -0.31914,0.66662 -0.12143,0.3067 -0.24964,0.62952 -0.28586,0.71714 -0.39026,0.94418 -0.71591,1.80233 -0.71591,1.88894 0,0.0588 0.237,0.33873 0.52615,0.62226 1.04549,1.02513 1.58458,1.80099 1.96288,2.82541 0.27322,0.73988 0.34249,1.15907 0.20578,1.24574 -0.11885,0.0754 -45.31007,0.0962 -45.50606,0.021 -0.11256,-0.0431 -0.12568,-0.46983 -0.12568,-3.99108 l 0,-3.94178 -0.77628,0.0358 c -0.92944,0.0432 -1.51681,0.1475 -2.36951,0.41894 -0.74363,0.23672 -1.90289,0.80822 -2.47055,1.21864 -1.24933,0.90326 -2.5524,2.5344 -3.33307,4.17098 -0.16033,0.33611 -0.29079,0.64959 -0.29079,0.69742 0,0.0478 -0.035,0.14939 -0.0765,0.22548 -0.22248,0.4081 -0.59649,2.08171 -0.68509,3.06568 l -0.0481,0.53847 28.47718,0 28.47717,0 0.27848,-0.2797 c 0.15335,-0.15335 0.31279,-0.27848 0.35487,-0.27848 0.042,0 0.20952,0.12513 0.37212,0.27848 l 0.29572,0.2797 3.01518,0 c 1.65821,0 3.07155,0.0215 3.14085,0.0481 0.10671,0.0409 0.12569,0.22176 0.12569,1.18168 0,0.6233 0.0267,1.15905 0.0579,1.19029 0.0739,0.0702 4.02056,0.0118 4.40384,-0.0652 0.53506,-0.1075 1.34785,-0.4966 1.77684,-0.85021 0.3654,-0.30118 0.85841,-1.02211 1.02765,-1.50451 0.34233,-0.97582 0.34131,-0.97557 0.34131,-5.73586 l 0,-4.58128 -1.4737,-0.0221 c -3.24301,-0.0484 -4.75129,0.56167 -5.58059,2.25369 -0.4343,0.88608 -0.49041,1.25295 -0.54341,3.54379 l -0.0493,2.11197 -1.95056,0.021 c -1.07259,0.0118 -1.99592,0.003 -2.05283,-0.0184 -0.0751,-0.0287 -0.006,-0.23188 0.25259,-0.73809 0.87326,-1.7125 1.17314,-2.79513 1.1903,-4.28802 0.0107,-0.92313 0.004,-0.96533 -0.24028,-1.43181 -0.27633,-0.52846 -0.79284,-1.05187 -1.28639,-1.30366 -0.24966,-0.12736 -0.54013,-0.1733 -1.34187,-0.21317 -0.56294,-0.0279 -1.18412,-0.062 -1.38128,-0.0752 -0.19716,-0.013 -1.01638,-0.0312 -1.81995,-0.0406 z m -143.49979,0.0122 0,5.01378 c -3.8e-4,5.7086 -0.15704,6.40361 -1.52175,6.8054 -0.70289,0.20691 -0.73192,0.26145 -0.73192,1.37019 0,0.6353 0.0755,1.2312 0.16758,1.32336 0.28941,0.28942 2.16565,-0.10447 2.93385,-0.61609 0.40461,-0.26945 0.96259,-0.94685 1.2396,-1.5045 0.47413,-0.95459 0.50754,-1.34683 0.57665,-6.70314 l 0.074,-5.689 -1.36896,0 -1.36898,0 z m 144.35493,2.55185 c 0.43164,-0.0201 1.25794,0.0503 1.45151,0.15156 0.10416,0.0544 0.24357,0.12399 0.3093,0.15404 0.24987,0.11419 0.39051,0.57478 0.3943,1.29133 0.004,0.68987 -0.0281,0.83102 -0.33763,1.47864 -0.13969,0.29224 -0.37582,0.59199 -0.37582,0.47808 0,-0.0204 -0.10542,-0.33145 -0.23534,-0.69125 -0.3147,-0.87148 -0.65441,-1.5265 -1.12992,-2.18099 -0.21599,-0.2973 -0.36869,-0.5801 -0.33885,-0.62842 0.0178,-0.029 0.11858,-0.0462 0.26245,-0.053 z m 12.19869,0.24151 0.51506,0.0247 0.021,3.44644 c 0.0229,3.80406 0.0349,3.70376 -0.47931,3.96027 -0.16311,0.0814 -0.47669,0.12075 -0.95126,0.12075 l -0.70729,0 0.0234,-3.40577 c 0.023,-3.39195 0.0238,-3.40546 0.20331,-3.65716 0.24717,-0.34654 0.73119,-0.51939 1.37511,-0.48917 z m -163.21607,0.13555 0.80338,0 0,2.47916 c 0,1.44254 -0.0903,2.47794 -0.21685,2.47794 -0.46074,0 -1.90485,-1.50838 -2.30051,-2.40276 -0.68575,-1.55024 -0.0123,-2.55434 1.71398,-2.55434 z m 101.51532,0.66537 c 0.0271,0.0123 0.0442,0.0397 0.0579,0.0802 0.0183,0.0547 0.0125,1.06703 -0.0123,2.24999 l -0.0443,2.15143 -1.84707,0.0208 c -1.29183,0.0149 -1.8629,-0.006 -1.90127,-0.0677 -0.0487,-0.0788 -0.0135,-0.18955 0.19962,-0.63086 0.69932,-1.4477 1.66402,-2.61268 2.82912,-3.4181 0.46263,-0.31984 0.63701,-0.42241 0.71837,-0.3857 z m -111.75729,0.0112 c 0.14157,0 0.23042,0.86771 0.23042,2.25244 l 0,2.25367 -1.91482,0 c -1.05335,0 -1.9135,-0.0759 -1.91236,-0.1688 0.0105,-0.83645 2.91337,-4.33731 3.59676,-4.33731 z m 186.48355,8.32467 0,1.35419 0,1.35417 1.35417,0 1.35418,0 0,-1.35417 0,-1.35419 -1.35418,0 -1.35417,0 z m -37.08158,8.58715 c -0.21264,-0.0317 -0.45809,0.0419 -0.81325,0.0949 -0.96739,0.144 -1.16765,0.32221 -1.05474,0.93894 0.0968,0.52851 0.16263,0.35438 -2.63443,7.02842 -0.80794,1.92778 -1.54434,3.69155 -1.63635,3.91959 -0.092,0.22805 -0.12193,0.5321 -0.0666,0.67648 0.12412,0.32341 1.61127,0.37597 1.81379,0.064 0.0709,-0.1092 0.45494,-1.05889 0.8539,-2.11075 l 0.72576,-1.91236 1.92592,-0.0443 1.92714,-0.0443 0.4855,1.31845 c 0.26736,0.72554 0.62634,1.67752 0.79721,2.11566 l 0.3105,0.79724 1.01288,0.0455 c 0.70021,0.0319 1.11096,-0.0259 1.33076,-0.18728 0.31406,-0.23052 0.31481,-0.24405 0.0222,-1.08187 -0.16295,-0.46662 -0.53958,-1.47585 -0.83665,-2.2426 -0.29706,-0.76673 -0.79666,-2.05675 -1.11019,-2.8673 -2.07806,-5.37236 -2.41544,-6.41323 -3.05338,-6.50844 z m 26.74102,0.0172 c -0.20787,-0.017 -0.46247,0.0306 -0.81324,0.0789 -0.92937,0.12783 -1.18054,0.37338 -1.03873,1.01902 0.082,0.3732 -0.12176,1.01476 -0.95497,2.99422 -0.58315,1.38541 -1.31568,3.12794 -1.62647,3.87279 -0.31082,0.7448 -0.75899,1.82086 -0.99686,2.39044 -0.75858,1.81641 -0.83774,2.05983 -0.743,2.30667 0.11628,0.30304 1.61295,0.34089 1.80638,0.0455 0.0709,-0.10821 0.45758,-1.05912 0.85885,-2.11198 l 0.72945,-1.91359 1.90867,-0.0443 1.90742,-0.0443 0.53354,1.39855 c 0.29313,0.76926 0.67377,1.73885 0.84652,2.15509 l 0.31422,0.75656 0.94755,0 c 1.0476,0 1.56242,-0.19431 1.56242,-0.59022 0,-0.14349 -0.54699,-1.6644 -1.21495,-3.3799 -0.66797,-1.71551 -1.60171,-4.12341 -2.07624,-5.35018 -1.12317,-2.90362 -1.32694,-3.53196 -1.95056,-3.58322 z m -168.17934,0.0493 c -0.65391,0.009 -1.65032,0.17953 -1.84951,0.35981 -0.28951,0.26198 -0.21447,0.54888 0.34008,1.30119 l 0.31297,0.4251 -0.0111,1.80518 c -0.006,0.99272 -0.0626,3.06013 -0.12568,4.5936 -0.15672,3.81322 -0.15594,3.95263 0.0468,4.2104 l 0,10e-4 c 0.15253,0.19391 0.20863,0.20832 0.73684,0.19962 1.34932,-0.0223 1.34712,-0.0172 1.25315,-2.181 -0.0399,-0.92007 -0.0935,-2.66959 -0.11952,-3.88756 -0.0462,-2.16951 -0.0444,-2.2122 0.10596,-2.13168 0.0845,0.0451 0.29001,0.27073 0.45715,0.5015 0.16713,0.23077 0.32506,0.43771 0.34994,0.4596 0.0248,0.0219 0.79666,1.04337 1.71521,2.26971 0.91854,1.22632 1.7129,2.28361 1.76572,2.34977 0.0528,0.0661 0.41825,0.54995 0.81202,1.07571 1.08276,1.44573 1.11484,1.47843 1.49712,1.52914 0.18342,0.0243 0.52886,0.02 0.76888,-0.0101 0.68735,-0.0859 0.66274,0.0584 0.71837,-4.22763 0.0262,-2.01543 0.0901,-4.6247 0.14171,-5.79869 0.092,-2.09054 0.0906,-2.13876 -0.0666,-2.34979 -0.13731,-0.18444 -0.22742,-0.21906 -0.62965,-0.24152 -0.25843,-0.0144 -0.65602,0.0142 -0.88349,0.0642 -0.59268,0.12995 -0.61088,0.21389 -0.51136,2.36702 0.0441,0.95538 0.0903,2.59701 0.10351,3.64852 0.0258,2.05641 0.005,2.15746 -0.35241,1.661 -0.0994,-0.13816 -0.98945,-1.32058 -1.97767,-2.62826 -0.98822,-1.30768 -2.28628,-3.02802 -2.88455,-3.82226 -0.59829,-0.79425 -1.14515,-1.46616 -1.21618,-1.49342 -0.0996,-0.0382 -0.27983,-0.0535 -0.49781,-0.0505 z m 40.50459,0.10843 c -1.12615,-0.0148 -2.4324,0.0631 -3.12237,0.20333 -0.22331,0.0453 -0.5023,0.0827 -0.61978,0.0825 -0.21996,-1.6e-4 -0.97254,0.1587 -1.03874,0.21933 -0.0204,0.0187 -0.0128,0.17338 0.0172,0.34378 0.0301,0.17039 0.0721,0.43654 0.0937,0.59145 l 0.0394,0.28217 0.48301,0 c 0.32707,0 0.51471,0.0242 0.57791,0.0765 0.0859,0.0709 0.0924,0.50518 0.0924,5.31074 l 0,5.23188 0.12568,0.19222 c 0.15116,0.23055 0.30189,0.25333 1.28271,0.19838 0.68255,-0.0382 1.05642,-0.15919 1.16195,-0.37582 0.027,-0.0555 0.0622,-1.21582 0.0777,-2.57898 l 0.0283,-2.47916 0.5853,-0.016 c 0.78628,-0.0217 1.18465,0.10507 1.54393,0.48918 0.13854,0.14812 0.26935,0.34829 0.29079,0.44606 0.0215,0.0978 0.0626,0.19304 0.0912,0.21071 0.0286,0.0176 0.051,0.0745 0.0505,0.1269 -6.3e-4,0.0871 0.15079,0.63679 0.2908,1.05352 0.0312,0.0929 0.0917,0.29486 0.13307,0.44976 0.0413,0.15491 0.1169,0.42105 0.16882,0.59144 0.0519,0.1704 0.12823,0.42371 0.16881,0.56312 0.28251,0.97145 0.75132,1.46037 1.53901,1.60185 0.23771,0.0426 0.47741,0.0652 0.53229,0.0505 0.0549,-0.0146 0.42767,-0.0591 0.82805,-0.0986 0.45646,-0.0449 0.77722,-0.10511 0.86129,-0.16017 0.12805,-0.084 0.13358,-0.10972 0.10967,-0.5853 -0.0137,-0.27392 -0.0502,-0.52931 -0.0814,-0.56805 -0.0311,-0.0388 -0.15447,-0.0702 -0.27353,-0.0702 -0.44651,0 -0.70773,-0.25371 -0.87116,-0.84529 -0.0214,-0.0774 -0.0577,-0.16616 -0.0814,-0.19714 -0.0236,-0.0309 -0.0603,-0.1454 -0.0814,-0.25384 -0.0211,-0.10842 -0.072,-0.27302 -0.11335,-0.36595 -0.0414,-0.093 -0.13134,-0.35911 -0.19962,-0.59147 -0.0683,-0.23234 -0.1601,-0.50244 -0.2033,-0.60006 -0.0431,-0.0976 -0.0789,-0.21765 -0.0789,-0.26616 0,-0.0858 -0.0614,-0.24585 -0.29695,-0.76766 -0.19099,-0.42292 -0.54484,-0.83095 -0.85515,-0.98699 -0.2197,-0.11048 -0.17118,-0.27128 0.14418,-0.47562 0.54408,-0.35256 1.03173,-0.96766 1.27039,-1.60185 0.13201,-0.35086 0.20087,-1.01767 0.16264,-1.58212 -0.0291,-0.43075 -0.0655,-0.56938 -0.24029,-0.92047 -0.56017,-1.12557 -1.6811,-1.71846 -3.55734,-1.88155 -0.30606,-0.0266 -0.66085,-0.0418 -1.03626,-0.0467 z m 52.63552,0.0172 c -1.6027,0.031 -3.236,0.53566 -4.41987,1.50576 -0.4633,0.37963 -0.87905,0.95382 -1.28763,1.7805 l -0.60254,1.2211 0.006,2.07995 c 0.006,1.90905 0.0423,2.15288 0.43003,2.97943 0.73695,1.57128 1.88595,2.58186 3.51298,3.09034 0.92131,0.28791 3.03874,0.28162 4.16726,-0.0123 2.07376,-0.54011 3.64223,-2.14484 4.16358,-4.2609 0.6972,-2.82973 0.0411,-5.49092 -1.73617,-7.04567 -1.05928,-0.92664 -2.6311,-1.3692 -4.2338,-1.33817 z m 58.61289,0.0332 c -1.49797,-0.0675 -4.80948,0.24543 -5.04091,0.47685 -0.0424,0.0424 -0.0296,0.33618 0.0296,0.65183 0.0985,0.5249 0.15434,0.57422 0.64812,0.57422 l 0.53971,0 0,5.22696 c 0,4.10441 0.045,5.28964 0.21193,5.51774 0.17752,0.24281 0.37713,0.27827 1.20879,0.21809 0.62391,-0.045 1.04812,-0.15653 1.13855,-0.29942 0.0794,-0.12534 0.14536,-1.32152 0.14662,-2.65783 l 0.003,-2.42989 0.77505,0 c 1.159,0 1.513,0.35851 2.01094,2.03682 0.78942,2.6608 1.10579,3.22652 1.91359,3.42671 l 10e-4,0 c 0.31542,0.0775 1.41331,0.006 2.11074,-0.138 0.28349,-0.0585 0.35738,-0.18189 0.35486,-0.58899 -0.003,-0.42295 -0.0949,-0.55648 -0.51752,-0.75286 -0.4696,-0.21818 -0.5678,-0.40113 -1.11883,-2.10089 -0.42003,-1.29564 -0.74605,-2.01547 -1.07447,-2.36704 -0.25954,-0.27785 -0.47194,-0.53574 -0.47194,-0.57296 0,-0.0372 0.25441,-0.29114 0.56558,-0.56435 0.79627,-0.69914 1.06637,-1.31034 1.07571,-2.43235 0.0179,-2.1589 -1.2687,-3.07849 -4.50982,-3.22464 z m -134.84241,0.0222 c -0.1589,-0.002 -0.40462,0.0287 -0.86377,0.09 -0.5327,0.071 -1.14742,0.16423 -1.36649,0.20699 -0.21906,0.0427 -0.47055,0.088 -0.55818,0.0998 -0.12576,0.017 -0.16445,0.0919 -0.1836,0.35488 -0.0134,0.1832 0.0149,0.4789 0.0628,0.65676 l 0.0876,0.32284 0.54463,0 0.54587,0 0.20084,0.41894 c 0.11044,0.23001 0.24473,0.54285 0.29944,0.69619 0.0547,0.15334 0.15201,0.40483 0.21562,0.55817 0.17408,0.41968 0.23336,0.57061 0.34255,0.8761 0.0548,0.15334 0.14259,0.38609 0.19591,0.51753 0.0533,0.13143 0.19583,0.49053 0.31545,0.79721 0.1196,0.30672 0.24526,0.62951 0.2797,0.71715 0.15495,0.39426 0.47804,1.2355 0.64198,1.67206 0.0987,0.2629 0.22253,0.5857 0.276,0.71715 0.0535,0.13144 0.19583,0.49053 0.31545,0.79722 0.11961,0.3067 0.24539,0.62828 0.2797,0.71591 0.0344,0.0878 0.11778,0.30284 0.18483,0.47809 0.49816,1.30194 0.65207,1.65994 0.7886,1.8335 0.13817,0.17562 0.21533,0.19841 0.68757,0.19715 0.92552,-0.002 0.91197,0.0112 1.56119,-1.58213 0.20303,-0.49826 0.44116,-1.07132 0.52983,-1.2741 0.0888,-0.20276 0.19224,-0.44097 0.22919,-0.5286 0.0369,-0.0876 0.12043,-0.28408 0.18606,-0.43743 0.0656,-0.15335 0.19954,-0.47615 0.29697,-0.71712 0.0974,-0.24098 0.22351,-0.54611 0.28094,-0.67772 0.0574,-0.13161 0.46825,-1.11757 0.91303,-2.19083 0.88977,-2.14697 0.92373,-2.22561 1.22482,-2.8895 0.11479,-0.25311 0.20824,-0.48891 0.20824,-0.52368 0,-0.0348 0.0682,-0.20219 0.15155,-0.37335 l 0.15157,-0.31174 0.0912,0.33638 c 0.0499,0.18525 0.13298,0.34001 0.18605,0.34377 0.053,0.004 0.28328,0.002 0.51012,-0.005 0.33865,-0.0102 0.42769,0.0155 0.49782,0.14663 0.0581,0.10865 0.0851,1.7392 0.0851,5.10867 0,3.3931 0.0272,5.00087 0.0863,5.11112 0.19477,0.36394 0.41907,0.38568 3.86907,0.38568 3.41742,0 3.61229,-0.0185 3.87279,-0.36473 0.16837,-0.22373 0.47438,-1.39429 0.61855,-2.36704 0.1238,-0.83519 0.0865,-0.90285 -0.54708,-1.00299 -0.48833,-0.0773 -0.56111,-0.0318 -0.77259,0.46947 -0.23703,0.56185 -0.58802,1.09864 -0.82064,1.25806 -0.39083,0.26782 -0.83185,0.33515 -2.22411,0.33515 -1.33848,0 -1.35603,-0.003 -1.40348,-0.1799 -0.0699,-0.26112 -0.0589,-3.50806 0.0124,-3.62017 0.0458,-0.0722 0.51737,-0.0788 1.97025,-0.0283 1.05052,0.0363 1.93255,0.0528 1.9592,0.037 0.0266,-0.0158 0.0913,-0.29663 0.14417,-0.62471 0.0846,-0.52449 0.0798,-0.63105 -0.0383,-0.87979 -0.0843,-0.17751 -0.20943,-0.30207 -0.3364,-0.33392 -0.21061,-0.0528 -2.32128,0.016 -3.17781,0.10349 l -0.49288,0.0505 -0.0493,-0.26984 c -0.0269,-0.14821 -0.0374,-0.95053 -0.0247,-1.78299 l 0.0234,-1.51313 1.56242,-0.0222 1.56119,-0.021 0.25013,0.25506 c 0.13752,0.14066 0.25013,0.3149 0.25013,0.38691 0,0.072 0.0254,0.15723 0.0566,0.18853 0.0313,0.0313 0.11488,0.27904 0.18481,0.55078 l 0.12693,0.49412 0.47315,-0.021 c 0.26025,-0.0115 0.5182,-0.0378 0.57298,-0.0579 0.0747,-0.0273 0.0998,-0.40038 0.0998,-1.49464 0,-1.23931 -0.021,-1.48747 -0.13552,-1.65484 -0.0742,-0.10833 -0.173,-0.22413 -0.21934,-0.2563 -0.12743,-0.0885 -5.77689,-0.072 -6.39508,0.0184 -0.29655,0.0434 -0.89034,0.13158 -1.31844,0.19592 -0.83085,0.12489 -0.98151,0.10945 -1.05106,-0.10966 -0.075,-0.23631 -0.51205,-0.31548 -1.16811,-0.21069 -0.69988,0.11177 -0.87762,0.19915 -1.0178,0.4978 -0.0581,0.12387 -0.1375,0.28742 -0.1762,0.36349 -0.0388,0.0762 -0.0701,0.18213 -0.0701,0.23658 0,0.0878 -0.29814,0.95019 -0.47685,1.37759 -0.0367,0.0878 -0.0861,0.23027 -0.10844,0.31791 -0.0225,0.0876 -0.19032,0.57184 -0.37337,1.07569 -0.18302,0.50387 -0.35089,0.99743 -0.37333,1.09666 -0.0225,0.0992 -0.0723,0.20041 -0.11091,0.22427 -0.0385,0.0239 -0.0701,0.12359 -0.0701,0.22178 0,0.0982 -0.0292,0.21219 -0.0652,0.25383 -0.036,0.0416 -0.13297,0.29038 -0.21563,0.55326 -0.0827,0.26287 -0.17342,0.51439 -0.20085,0.55817 -0.0274,0.0437 -0.11368,0.29408 -0.19222,0.55696 -0.0786,0.26289 -0.17376,0.51285 -0.21195,0.55449 -0.0382,0.0416 -0.0701,0.15245 -0.0701,0.24644 0,0.094 -0.0709,0.23449 -0.15771,0.31297 -0.15175,0.13733 -0.15889,0.13723 -0.20577,-0.007 -0.0268,-0.0827 -0.0776,-0.22165 -0.11215,-0.30928 -0.0346,-0.0878 -0.12414,-0.32035 -0.19959,-0.51751 -0.0755,-0.19715 -0.17016,-0.42173 -0.20949,-0.49782 -0.0392,-0.0761 -0.0714,-0.19308 -0.0714,-0.25999 0,-0.0669 -0.0336,-0.18392 -0.0751,-0.25998 -0.10978,-0.20032 -0.26657,-0.59029 -0.60009,-1.49218 -0.16201,-0.43814 -0.34043,-0.90361 -0.39554,-1.03505 -0.0551,-0.13144 -0.14479,-0.3654 -0.19959,-0.51875 -0.0548,-0.15335 -0.12716,-0.34981 -0.16143,-0.43743 -0.17866,-0.45673 -0.48312,-1.25028 -0.64197,-1.67332 -0.1938,-0.51613 -0.36568,-0.93821 -0.48919,-1.20138 -0.0427,-0.0912 -0.18589,-0.22883 -0.3179,-0.30682 -0.11378,-0.0671 -0.1861,-0.10184 -0.34502,-0.10351 z m -3.99106,0.0136 c -0.40188,0.0125 -1.24691,0.1191 -2.77736,0.34502 l -0.39554,0.0579 0.0222,0.35856 c 0.0126,0.19716 0.0486,0.48493 0.0802,0.63827 l 0.0579,0.27849 0.5545,0.0394 0.55447,0.0406 0.0394,5.2972 c 0.0219,2.9136 0.071,5.34408 0.10844,5.40194 0.0374,0.0578 0.14493,0.13887 0.23905,0.17989 0.19924,0.0868 1.40204,0.0323 1.79283,-0.0814 0.51091,-0.14863 0.48395,0.20314 0.48673,-6.26323 l 0.003,-5.90096 -0.17991,-0.16141 c -0.0986,-0.0889 -0.24283,-0.18405 -0.32158,-0.21194 -0.0443,-0.0156 -0.12975,-0.0227 -0.2637,-0.0184 z m -24.3518,9.9e-4 c -0.29466,-0.0238 -0.76477,0.024 -1.56981,0.13062 -0.52105,0.0689 -0.82059,0.11976 -1.65606,0.28092 -0.10038,0.0194 -0.15936,0.0712 -0.13185,0.11584 0.0275,0.0445 0.0732,0.32111 0.10227,0.61486 l 0.053,0.53478 0.53724,0.0234 c 0.47899,0.021 0.54092,0.043 0.57666,0.19962 0.0221,0.0966 0.0507,2.00301 0.0628,4.2375 0.0204,3.76214 0.0326,4.09548 0.17375,4.50119 0.38196,1.09793 1.11398,1.74786 2.33623,2.0738 0.29423,0.0784 0.76269,0.1453 1.0412,0.14909 0.54537,0.008 1.91529,-0.20819 2.03928,-0.3216 0.0416,-0.038 0.13654,-0.0689 0.21194,-0.0689 0.0754,0 0.42881,-0.12336 0.7849,-0.27354 l 0.64813,-0.27233 0.17005,0.35118 c 0.14025,0.28869 0.22078,0.36189 0.44605,0.40417 0.4359,0.0817 1.59189,-0.0875 1.83473,-0.26863 l 0.20947,-0.15771 0.021,-5.87755 c 0.0154,-4.435 -0.002,-5.9052 -0.0739,-5.99092 -0.2318,-0.27932 -0.47346,-0.32124 -1.32583,-0.23042 -0.68469,0.073 -0.85354,0.11842 -1.01533,0.27478 l -0.19468,0.18852 0,4.76119 0,4.7612 -0.41772,0.18112 c -1.86611,0.8087 -3.48795,0.58391 -4.02926,-0.55941 -0.11644,-0.24593 -0.13661,-0.80973 -0.17251,-4.77968 -0.0317,-3.50554 -0.0641,-4.54098 -0.1454,-4.68356 -0.10258,-0.17982 -0.22163,-0.27565 -0.51629,-0.29943 z m 63.02167,0.001 c -1.58177,0 -1.91069,0.0627 -2.93017,0.56558 -0.33967,0.16756 -0.56221,0.33481 -0.90689,0.67647 -0.25149,0.24929 -0.47692,0.51544 -0.50026,0.59145 -0.0233,0.0761 -0.0682,0.17011 -0.0999,0.20947 -0.0315,0.0394 -0.1188,0.24249 -0.19468,0.45098 -0.12201,0.33532 -0.13912,0.47618 -0.14418,1.22358 -0.005,0.7394 0.0103,0.89014 0.12077,1.20631 0.16635,0.47584 0.44225,0.8815 0.87115,1.28271 0.51997,0.48638 0.8686,0.70312 1.75588,1.08925 0.1549,0.0673 0.35804,0.15529 0.45098,0.19592 0.0929,0.0406 0.282,0.11737 0.42141,0.17005 0.13941,0.0527 0.35816,0.14347 0.48548,0.20207 0.12732,0.0585 0.25795,0.10597 0.28956,0.10597 0.0765,0 0.71634,0.33001 0.9993,0.51506 0.41027,0.26829 0.64814,0.63934 0.64814,1.01039 0,0.36573 -0.16349,0.80739 -0.38937,1.05229 -0.25747,0.27915 -0.39632,0.36266 -0.85884,0.51875 -0.3295,0.11102 -0.4619,0.12336 -1.09787,0.10474 -0.67621,-0.0198 -0.74751,-0.0323 -1.09174,-0.1996 -0.45309,-0.22014 -0.8612,-0.61622 -1.03256,-1.00177 -0.0833,-0.18729 -0.20456,-0.66525 -0.20456,-0.80586 0,-0.26066 -0.0965,-0.30136 -0.62224,-0.25752 -0.67243,0.056 -0.69397,0.0861 -0.64445,0.88594 0.0214,0.34584 0.0353,0.99775 0.0308,1.44905 l -0.007,0.82063 0.17495,0.18361 c 0.21662,0.22666 0.49845,0.33325 1.15212,0.43866 0.27881,0.0449 0.60923,0.10206 0.73315,0.12692 0.30953,0.062 2.138,0.0652 2.4496,0.004 0.13941,-0.0275 0.39272,-0.0774 0.56311,-0.1109 0.41367,-0.0811 1.06644,-0.28659 1.10405,-0.34747 0.0165,-0.0269 0.072,-0.0493 0.12443,-0.0493 0.14442,-10e-6 0.962,-0.54219 1.21988,-0.80955 0.76009,-0.78803 1.09689,-1.90756 0.93154,-3.09772 -0.1641,-1.18121 -0.84081,-2.00399 -2.18098,-2.65291 -0.30249,-0.14648 -0.62203,-0.3018 -0.70975,-0.34502 -0.0877,-0.0431 -0.18928,-0.0801 -0.22549,-0.0814 -0.0363,-0.001 -0.16687,-0.051 -0.29078,-0.1109 -0.12394,-0.0599 -0.25684,-0.10842 -0.29451,-0.10968 -0.0625,-0.002 -0.17514,-0.0461 -0.66416,-0.25752 -1.00662,-0.43505 -1.47303,-0.7944 -1.63017,-1.25561 -0.11082,-0.32518 -0.11071,-0.34388 0.0283,-0.81078 0.1973,-0.6624 0.65337,-1.00756 1.47248,-1.11512 0.62814,-0.0825 1.13199,-0.008 1.55503,0.22918 0.30203,0.1693 0.62337,0.46821 0.62841,0.58406 0.001,0.0285 0.0366,0.0916 0.0777,0.14048 0.1197,0.14225 0.31913,0.72933 0.31913,0.93892 0,0.22294 -0.0306,0.21775 0.70852,0.12691 0.49864,-0.0612 0.53602,-0.0756 0.56925,-0.20824 0.0196,-0.0779 0.004,-0.54825 -0.0332,-1.04613 -0.14647,-1.93742 -0.14523,-1.93069 -0.54094,-2.11321 -0.47034,-0.21694 -1.26758,-0.31297 -2.59006,-0.31297 z m 7.7012,0 -0.52738,0.0101 c -0.50668,0.0102 -1.45075,0.12202 -2.16127,0.25505 -0.18589,0.0349 -0.45203,0.078 -0.59145,0.0961 l -0.25384,0.0333 0.0101,0.589 c 0.0119,0.71836 0.0314,0.74076 0.57788,0.69497 0.45697,-0.0383 0.60694,0.0264 0.6506,0.27969 0.0172,0.10032 0.037,2.48077 0.0443,5.2898 l 0.0135,5.10743 0.13309,0.14171 c 0.0735,0.0783 0.21364,0.15249 0.3105,0.1651 0.34001,0.0443 1.30604,-0.0218 1.62772,-0.11211 0.255,-0.0716 0.34869,-0.13074 0.4362,-0.27233 0.10902,-0.1768 0.11214,-0.29807 0.11214,-6.00816 l 0,-5.82826 -0.19099,-0.22056 -0.19099,-0.22057 z m 59.24375,0.0112 c -1.90793,-0.011 -3.01873,0.32762 -3.87402,1.1829 -0.80903,0.80903 -1.03532,1.48182 -0.95863,2.83897 0.0987,1.74688 0.93615,2.59417 3.57458,3.61648 1.59349,0.61743 2.4533,1.253 2.4533,1.81379 0,1.08026 -1.15219,1.85844 -2.5531,1.72382 -1.20868,-0.11613 -1.90145,-0.73463 -2.14279,-1.91482 -0.0598,-0.29271 -0.18968,-0.43866 -0.39183,-0.43866 -0.75576,0 -0.80708,0.10991 -0.80708,1.74972 0,1.76495 0.0759,1.9006 1.16934,2.09472 0.36483,0.0647 1.4512,0.0988 2.4151,0.0765 1.3539,-0.0314 1.9178,-0.11442 2.47792,-0.36472 1.69906,-0.75926 2.51234,-2.08973 2.33379,-3.8198 -0.17004,-1.64751 -0.87494,-2.30798 -3.69658,-3.46862 -0.96389,-0.39648 -1.87729,-0.87387 -2.03064,-1.06092 -0.44018,-0.53686 -0.35885,-1.36375 0.18728,-1.90989 0.4142,-0.41422 0.57378,-0.46577 1.44906,-0.46577 0.90675,0 1.02633,0.0418 1.52546,0.54094 0.33178,0.33179 0.54216,0.69834 0.54216,0.94632 0,0.52321 0.20795,0.63925 0.90935,0.50766 l 0.56928,-0.10596 -0.10105,-1.32955 c -0.0562,-0.73123 -0.14552,-1.4431 -0.19838,-1.58089 -0.14509,-0.37814 -1.25327,-0.62297 -2.85252,-0.63212 z m -44.92816,9.9e-4 c -0.29282,0.007 -0.62843,0.0383 -0.74672,0.0702 -0.29116,0.0785 -1.17128,0.18582 -1.41455,0.17251 -0.10843,-0.006 -2.53033,-0.0212 -5.38221,-0.0346 l -5.18505,-0.0247 -0.1528,0.15771 c -0.2057,0.21473 -0.24888,0.5155 -0.29449,2.02696 -0.0288,0.95542 -0.0219,1.27468 0.0308,1.33816 0.0422,0.051 0.16845,0.0838 0.32406,0.0838 0.13976,0 0.35341,0.0299 0.47563,0.0665 0.26214,0.0786 0.27928,0.0615 0.41155,-0.40538 0.27528,-0.97134 0.40908,-1.26479 0.67154,-1.47123 0.15032,-0.11823 0.21317,-0.12498 1.23589,-0.12939 l 1.07694,-0.005 0.0147,5.17028 0.0147,5.17028 0.13799,0.21933 c 0.0931,0.14744 0.19065,0.22846 0.29573,0.24644 0.29579,0.0506 1.39643,-0.0235 1.69673,-0.11459 0.17265,-0.0523 0.33358,-0.14305 0.37952,-0.21318 0.0672,-0.10274 0.0833,-0.93481 0.0949,-5.26022 0.0122,-4.49308 0.0235,-5.14457 0.0973,-5.19492 0.0529,-0.0361 0.46854,-0.0494 1.11022,-0.0358 0.96037,0.0204 1.03618,0.0303 1.21492,0.15279 0.18219,0.12484 0.43497,0.562 0.43497,0.75164 0,0.048 0.025,0.10271 0.0542,0.12075 0.0292,0.018 0.0696,0.15176 0.09,0.2982 0.0202,0.14644 0.0886,0.37687 0.15157,0.51135 0.1033,0.22021 0.12848,0.24 0.26122,0.20453 0.0811,-0.0216 0.2996,-0.0514 0.48548,-0.0664 0.18589,-0.0151 0.36764,-0.0513 0.40416,-0.0814 0.0486,-0.0399 0.0584,-0.30254 0.0346,-0.97836 -0.0357,-1.00547 -0.0142,-1.09788 0.25628,-1.09788 0.13334,0 0.5163,0.29827 0.5163,0.40169 0,0.0225 0.13463,0.27653 0.29942,0.56557 0.16478,0.28902 0.4496,0.79193 0.63335,1.11638 0.18375,0.32442 0.36623,0.64073 0.40415,0.70356 0.0379,0.0629 0.10725,0.19048 0.15526,0.28342 0.048,0.093 0.176,0.32054 0.28463,0.50642 0.10865,0.18588 0.23618,0.41473 0.28217,0.50768 0.046,0.093 0.10587,0.20608 0.13432,0.25257 0.0284,0.0464 0.18063,0.30412 0.33762,0.57176 l 0.28586,0.48671 0,2.60731 c 0,2.59079 6.4e-4,2.60967 0.12322,2.78846 0.14728,0.21508 0.33886,0.24893 1.20016,0.21316 0.69905,-0.029 1.06242,-0.1458 1.21371,-0.3906 0.10467,-0.16923 0.10966,-0.29904 0.10966,-2.7712 l 0,-2.59376 0.24027,-0.40539 c 0.13167,-0.22257 0.2835,-0.47104 0.33763,-0.55327 0.0541,-0.0823 0.12606,-0.21913 0.16018,-0.30433 0.0342,-0.0852 0.0823,-0.15526 0.10722,-0.15526 0.0249,0 0.0745,-0.0701 0.10964,-0.15526 0.0626,-0.15114 0.13495,-0.27936 0.33024,-0.58776 0.13415,-0.21186 0.69771,-1.15075 0.79969,-1.33201 0.10331,-0.18365 0.44383,-0.75277 0.57298,-0.95739 0.052,-0.0825 0.16335,-0.27637 0.24644,-0.43129 0.0831,-0.15488 0.18614,-0.32198 0.22917,-0.37088 0.0429,-0.0489 0.0777,-0.10521 0.0777,-0.12444 0,-0.0193 0.0796,-0.15317 0.17745,-0.29819 0.1933,-0.28644 0.27347,-0.71364 0.17002,-0.9069 -0.11404,-0.21311 -0.44561,-0.26827 -1.12005,-0.1873 -0.92343,0.11089 -0.88901,0.0725 -1.91975,2.15511 -0.46387,0.9372 -0.91412,1.85586 -1.00055,2.04175 -0.14043,0.30202 -0.27112,0.47181 -0.3672,0.47686 -0.0181,0.001 -0.10361,-0.13186 -0.18975,-0.29451 -0.0863,-0.16263 -0.21573,-0.39606 -0.28832,-0.51999 -0.0726,-0.12391 -0.17069,-0.30135 -0.21688,-0.3943 -0.0461,-0.0929 -0.17198,-0.32176 -0.2797,-0.50765 -0.10772,-0.18588 -0.27506,-0.48936 -0.37212,-0.67526 -0.45717,-0.8755 -1.21409,-2.12738 -1.38006,-2.28201 -0.14157,-0.13213 -0.18522,-0.13981 -0.68386,-0.12815 z m 103.08883,0.0652 c -0.24316,-0.0202 -0.56966,0.0101 -1.00794,0.0443 -1.94095,0.15283 -2.26599,0.24867 -2.26599,0.67278 0,0.67117 0.16773,0.86992 0.73438,0.86992 l 0.5397,0 0,5.18753 c 0,3.45239 0.0589,5.29851 0.17497,5.51528 0.15434,0.28836 0.29322,0.31815 1.20631,0.25999 0.66835,-0.0425 1.08216,-0.14743 1.17674,-0.29695 0.0803,-0.12691 0.14785,-1.43159 0.1491,-2.89934 l 0.003,-2.66894 2.4693,0 2.46931,0 0,2.53955 c 0,1.39633 0.0697,2.72263 0.15527,2.94739 0.14122,0.3714 0.23664,0.40786 1.04613,0.40786 1.63246,0 1.50696,0.52274 1.50696,-6.27925 0,-4.99742 -0.0367,-5.97928 -0.23042,-6.14 -0.24757,-0.20548 -1.76206,-0.0931 -2.1748,0.16142 -0.17128,0.10561 -0.23529,0.67932 -0.27479,2.45329 l -0.0517,2.31652 -2.45822,0 -2.45698,0 0,-2.3695 c 0,-2.15372 0.0198,-2.66128 -0.70975,-2.72191 z m -51.24438,0.003 c -0.16219,0.007 -0.34729,0.0227 -0.55941,0.0394 -0.69197,0.0544 -1.49485,0.14678 -1.78422,0.20577 -0.49095,0.10013 -0.523,0.14653 -0.4781,0.68388 0.0438,0.52467 0.0982,0.58294 0.60626,0.65553 l 0.55694,0.0788 0.0406,5.25776 c 0.0221,2.89169 0.0737,5.34784 0.11458,5.45738 0.0481,0.12909 0.41215,0.19837 1.03506,0.19837 1.555,0 1.59816,-0.0876 1.59816,-3.26529 l 0,-2.62951 2.46929,0 2.46933,0 0,2.76874 c 0,2.26457 0.0438,2.80516 0.23904,2.96712 0.32507,0.26978 2.12538,0.13785 2.32022,-0.17005 0.0794,-0.12535 0.14537,-2.82193 0.14662,-5.99214 0.003,-6.68192 0.0793,-6.35297 -1.41086,-6.1782 -0.52225,0.0613 -0.9793,0.21108 -1.09542,0.35856 -0.13752,0.17464 -0.1996,0.93437 -0.1996,2.45328 l 0,2.19947 -2.46933,0 -2.46929,0 0,-2.27956 c 0,-2.55199 0.006,-2.8614 -1.12993,-2.80939 z m 34.98561,0.0147 c -0.76807,-0.067 -3.26653,0.27793 -3.26653,0.45097 0,0.0675 0.0449,0.34719 0.0998,0.62104 0.0881,0.43959 0.16226,0.49779 0.63704,0.49779 l 0.53847,0 -10e-4,5.77528 c -5.8e-4,3.72219 -0.0628,6.00022 -0.17622,6.40864 -0.17112,0.61642 -0.9358,1.50939 -1.71767,2.00723 -0.37892,0.24127 -0.37919,0.24682 -0.10104,0.83296 0.15385,0.3242 0.34578,0.58899 0.42635,0.58899 0.29947,0 1.83039,-0.85969 2.48408,-1.39484 0.42821,-0.35055 0.86679,-0.93986 1.19524,-1.60678 l 0.51875,-1.05352 0,-6.53554 0,-6.53678 -0.63704,-0.0554 z m -54.83375,0.11582 c -2.52742,0.0274 -5.77115,0.26468 -5.88,0.55942 -0.036,0.0971 -0.008,0.38982 0.0629,0.64936 0.10473,0.38446 0.21495,0.47304 0.59636,0.47808 l 0.46825,0.006 0.0418,5.1641 c 0.0284,3.48666 0.10012,5.23364 0.21934,5.3773 0.21197,0.25538 1.76861,0.28794 2.21918,0.0467 0.28362,-0.15178 0.30805,-0.35402 0.30805,-2.54817 l 0,-2.38429 1.9715,0 1.97028,0 0.10595,-0.65922 c 0.0803,-0.50214 0.0419,-0.72888 -0.16264,-0.95495 -0.24318,-0.26871 -0.43942,-0.28729 -2.08241,-0.19345 l -1.81255,0.1035 0.0443,-1.97644 0.0455,-1.97644 1.46755,-0.0455 c 1.6884,-0.0526 1.96836,0.0993 2.2734,1.2322 0.16072,0.59686 0.21596,0.64568 0.72575,0.64568 l 0.55079,0 0,-1.5612 c 0,-1.00196 -0.0682,-1.62948 -0.191,-1.75217 -0.16761,-0.16761 -1.42601,-0.22716 -2.94246,-0.21071 z m -65.41704,1.28148 c 0.35638,0 1.12797,0.18156 1.43058,0.33639 0.28931,0.14803 0.62888,0.47905 0.78244,0.76272 0.10687,0.19749 0.12078,0.31195 0.11951,0.92908 -0.002,0.64327 -0.0144,0.73142 -0.15154,1.02272 -0.14455,0.30708 -0.56344,0.77998 -0.69127,0.77998 -0.0341,0 -0.0907,0.0278 -0.12569,0.0629 -0.0853,0.0853 -0.62717,0.27099 -0.80338,0.27478 -0.0774,0.002 -0.30002,0.0358 -0.4941,0.0764 -0.61389,0.12862 -0.57668,0.26454 -0.57668,-2.10582 0,-2.3056 -0.039,-2.13908 0.51013,-2.13908 z m 52.80187,0.0101 c 1.95863,0.0274 3.50445,2.04979 3.53762,5.02119 0.0249,2.23185 -0.6948,3.80866 -2.02696,4.44082 -0.88549,0.42018 -1.98377,0.33867 -2.85007,-0.21071 -1.30425,-0.82713 -2.0294,-2.49063 -2.0294,-4.65398 0,-2.24358 0.66384,-3.69569 1.96041,-4.28434 0.48249,-0.21905 0.95641,-0.31929 1.4084,-0.31298 z m 57.65054,0.004 0.43865,0 c 0.81857,0.002 1.61124,0.32572 2.03805,0.83295 0.37247,0.44271 0.41639,0.61132 0.35488,1.35296 -0.0914,1.10162 -0.63616,1.70883 -1.74602,1.94686 -0.43058,0.0923 -0.8507,0.16882 -0.934,0.16882 -0.0883,0 -0.15156,-0.89797 -0.15156,-2.15141 l 0,-2.15018 z m 16.69249,2.17359 c 0.0143,-0.008 0.0261,-0.008 0.0346,10e-4 0.15237,0.16729 0.89556,2.05359 1.04242,2.64429 l 0.10967,0.43743 -1.22356,0 c -1.40946,0 -1.35558,0.20077 -0.52861,-1.96658 0.22941,-0.60128 0.46538,-1.06033 0.56557,-1.11637 z m -26.83467,0.0517 c 0.13143,-0.0745 1.21423,2.44188 1.21865,2.8328 0.002,0.1418 -0.34177,0.19839 -1.19276,0.19839 -0.65722,0 -1.19342,-0.0538 -1.19154,-0.11953 0.007,-0.25998 1.04008,-2.84062 1.16565,-2.91166 z"
       id="path4166"
       inkscape:connector-curvature="0" />
    <path
       style="opacity:1;fill:#8bc34a;fill-opacity:1;stroke:none;stroke-width:0.1;stroke-linecap:round;stroke-miterlimit:4;stroke-dasharray:none;stroke-opacity:1"
       d="m 158.9506,586.07563 c -0.0808,-0.0591 -0.12243,-0.14697 -0.0926,-0.1953 0.0454,-0.0735 0.53608,-0.32706 1.28442,-0.66356 0.51605,-0.23204 5.45985,-1.88035 6.9305,-2.31069 0.13143,-0.0385 0.47199,-0.14635 0.75677,-0.23976 0.2848,-0.0934 0.64327,-0.19832 0.79661,-0.23313 0.15335,-0.0349 0.40428,-0.0993 0.55763,-0.14328 0.15335,-0.0439 0.61935,-0.17428 1.03558,-0.2895 0.41625,-0.11523 0.93603,-0.25942 1.15509,-0.32044 0.41572,-0.1158 3.28513,-0.83092 4.1822,-1.04227 0.28477,-0.067 0.64327,-0.15378 0.79661,-0.19261 0.15335,-0.0387 0.69104,-0.15907 1.19491,-0.26721 1.33096,-0.28569 1.36027,-0.29177 1.75254,-0.36291 0.19715,-0.0358 0.64525,-0.12656 0.99576,-0.20179 0.66491,-0.1427 1.03209,-0.2151 1.83221,-0.3613 0.26287,-0.048 0.78266,-0.14316 1.15508,-0.21138 0.3724,-0.0681 0.85636,-0.15264 1.07542,-0.18762 0.21905,-0.035 0.61338,-0.0998 0.87627,-0.14413 0.26288,-0.0442 0.74681,-0.12098 1.07542,-0.17038 0.3286,-0.0494 0.77668,-0.12209 0.99575,-0.16154 0.21907,-0.0394 0.82848,-0.12949 1.35424,-0.20005 0.52576,-0.0705 1.17101,-0.1604 1.4339,-0.19956 0.26287,-0.0391 0.83644,-0.11058 1.27457,-0.15869 0.43814,-0.0481 1.02961,-0.12235 1.31442,-0.16504 0.77469,-0.11616 1.64969,-0.20561 4.97879,-0.50907 2.52158,-0.22985 3.16869,-0.27237 8.08557,-0.53119 2.53937,-0.13366 13.25728,-0.13376 15.89236,-1.7e-4 1.09533,0.0555 2.63678,0.13309 3.42542,0.17232 1.42434,0.0708 2.07207,0.11757 4.89914,0.35333 2.46864,0.20587 4.72458,0.42315 5.01864,0.48338 0.10954,0.0225 0.55763,0.0759 0.99576,0.11856 0.91383,0.0893 1.59699,0.17111 2.94745,0.35341 0.52576,0.071 1.22479,0.16387 1.55338,0.20645 0.32861,0.0425 0.83047,0.11044 1.11525,0.1508 1.63206,0.23119 2.41023,0.33851 2.90763,0.40093 0.30669,0.0384 0.9161,0.1286 1.35424,0.20027 0.43813,0.0716 1.01169,0.16516 1.27456,0.2078 0.74328,0.12055 1.2929,0.21419 2.07119,0.35291 0.39432,0.0702 0.9141,0.15765 1.15508,0.19415 0.24097,0.0366 0.79661,0.12598 1.23475,0.19885 1.32261,0.22 1.73055,0.28567 2.2305,0.35909 0.41985,0.0616 1.5155,0.24117 2.90762,0.47638 0.24098,0.0406 0.79662,0.13169 1.23476,0.20219 0.43813,0.0705 0.99376,0.16093 1.23474,0.201 0.99048,0.16467 2.64184,0.42041 3.58474,0.55514 1.3346,0.1907 1.69737,0.24004 2.58897,0.35214 2.45211,0.30832 3.3946,0.37392 3.4405,0.23947 0.0438,-0.1286 -0.95266,-1.17391 -1.67571,-1.75769 -0.67069,-0.54151 -1.66975,-1.22432 -2.32242,-1.58728 -1.24249,-0.69098 -1.65185,-0.9053 -3.04702,-1.5953 -0.8756,-0.43301 -1.53347,-0.80517 -1.53347,-0.86745 0,-0.15281 3.14988,-1.70095 4.77964,-2.34915 1.78789,-0.71108 2.53068,-0.89497 3.66442,-0.90712 l 0.91609,-0.0101 0.79661,0.38628 c 1.90989,0.92616 3.96801,1.97052 4.17807,2.1201 0.12533,0.0893 0.24585,0.16226 0.26784,0.16226 0.0889,0 1.49208,0.8591 2.12611,1.30162 2.04306,1.42598 2.94628,2.51805 3.01257,3.64253 0.0496,0.84205 -0.35252,1.71221 -1.08378,2.34481 -0.4292,0.37129 -1.33971,0.89097 -1.96156,1.11959 -0.31057,0.11417 -0.63637,0.23835 -0.72401,0.27594 -0.14182,0.0609 -1.43939,0.38417 -2.0712,0.5161 -0.51632,0.10782 -1.07699,0.19613 -2.03134,0.31995 -3.69451,0.47938 -10.07502,0.45552 -14.6576,-0.0548 -0.41623,-0.0464 -1.06147,-0.11375 -1.43389,-0.14979 -1.07272,-0.1038 -2.10877,-0.21709 -3.22626,-0.35279 -0.56958,-0.0691 -1.34031,-0.16011 -1.71273,-0.20213 -0.80628,-0.091 -1.56204,-0.18884 -2.74829,-0.35586 -0.48195,-0.0679 -1.1272,-0.15637 -1.43389,-0.19669 -0.30671,-0.0403 -0.95196,-0.13114 -1.43391,-0.20182 -0.48194,-0.0707 -1.10926,-0.16103 -1.39405,-0.20076 -0.98055,-0.13685 -1.63503,-0.23658 -2.38983,-0.3642 -0.41622,-0.0703 -0.97186,-0.15832 -1.23475,-0.19547 -0.62047,-0.0878 -1.26282,-0.19266 -2.15084,-0.35154 -0.39431,-0.0706 -0.93203,-0.16068 -1.19491,-0.20026 -0.5551,-0.0837 -2.27056,-0.3673 -2.90764,-0.48084 -0.9391,-0.16739 -2.45416,-0.41478 -2.94744,-0.48132 -1.46714,-0.19786 -1.72857,-0.23625 -1.91186,-0.28082 -0.10953,-0.0266 -0.48593,-0.0824 -0.83644,-0.1239 -1.24084,-0.14696 -1.84441,-0.21898 -2.90762,-0.34693 -2.28807,-0.27533 -5.75416,-0.50389 -10.27625,-0.6776 -5.10899,-0.19627 -13.34045,-0.0158 -21.42879,0.4695 -2.98865,0.17935 -5.98275,0.44211 -10.11692,0.88782 -1.07708,0.11612 -2.95201,0.35681 -4.3017,0.55222 -0.28477,0.0412 -0.80456,0.11489 -1.15507,0.16371 -0.35051,0.0488 -0.94199,0.14102 -1.31441,0.20496 -0.37242,0.064 -0.87426,0.14943 -1.11525,0.18999 -1.29861,0.21856 -2.92685,0.54036 -4.02287,0.79501 -2.24077,0.52062 -3.00145,0.73029 -4.9788,1.37222 -0.91415,0.29677 -2.16686,0.5955 -3.2661,0.77886 -2.85292,0.4759 -4.35127,0.59555 -4.65712,0.37192 z"
       id="path4244"
       inkscape:connector-curvature="0" />
  </g>
</svg>
